<?xml version="1.0" encoding="UTF-8"?>
<svg viewBox="0 0 1054.5853 1014.6424" xmlns="http://www.w3.org/2000/svg" xmlns:xlink="http://www.w3.org/1999/xlink">
 <defs>
  <linearGradient id="b">
   <stop stop-color="#fff" offset="0"/>
   <stop stop-color="#fff" stop-opacity="0" offset="1"/>
  </linearGradient>
  <linearGradient id="a">
   <stop stop-color="#e6e6e6" offset="0"/>
   <stop stop-color="#e6e6e6" stop-opacity="0" offset="1"/>
  </linearGradient>
  <linearGradient id="d" x1="229.36" x2="247.44" y1="1094.8" y2="1001.9" gradientUnits="userSpaceOnUse">
   <stop offset="0"/>
   <stop stop-color="#b3b3b3" offset="1"/>
  </linearGradient>
  <linearGradient id="h" x1="292.44" x2="293.44" y1="104.33" y2="134.64" gradientUnits="userSpaceOnUse">
   <stop stop-color="#fff" stop-opacity=".8077" offset="0"/>
   <stop stop-color="#00f" stop-opacity="0" offset="1"/>
  </linearGradient>
  <linearGradient id="g" x1="-499.79" x2="-502.36" y1="250.58" y2="277.72" gradientUnits="userSpaceOnUse">
   <stop stop-color="#fff" offset="0"/>
   <stop stop-color="#00f" stop-opacity="0" offset="1"/>
  </linearGradient>
  <linearGradient id="v" x1="-244.41" x2="-246.62" y1="273.16" y2="296.02" gradientTransform="matrix(.97711 0 0 .91617 -11.838 21.518)" gradientUnits="userSpaceOnUse" xlink:href="#a"/>
  <linearGradient id="f" x1="-244.41" x2="-246.62" y1="273.16" y2="296.02" gradientTransform="matrix(.94214 .08399 -.08142 .99645 26.414 146.55)" gradientUnits="userSpaceOnUse" xlink:href="#a"/>
  <linearGradient id="u" x1="-244.41" x2="-246.62" y1="273.16" y2="296.02" gradientTransform="matrix(.91333 .17241 -.17938 .94455 69.651 361.18)" gradientUnits="userSpaceOnUse" xlink:href="#a"/>
  <linearGradient id="e" x1="-244.41" x2="-246.62" y1="273.16" y2="296.02" gradientTransform="matrix(.90984 .25859 -.26622 .96367 107.84 490.34)" gradientUnits="userSpaceOnUse" xlink:href="#a"/>
  <linearGradient id="t" x1="-244.41" x2="-246.62" y1="273.16" y2="296.02" gradientTransform="matrix(.45694 -.25439 .28548 .45865 298.22 67.822)" gradientUnits="userSpaceOnUse" xlink:href="#a"/>
  <linearGradient id="s" x1="-244.41" x2="-246.62" y1="273.16" y2="296.02" gradientTransform="matrix(.73753 -.14118 .34662 .53919 -162.06 37.265)" gradientUnits="userSpaceOnUse" xlink:href="#a"/>
  <linearGradient id="r" x1="-244.41" x2="-246.62" y1="273.16" y2="296.02" gradientTransform="matrix(.97406 0 0 .92815 -13.417 18.444)" gradientUnits="userSpaceOnUse" xlink:href="#a"/>
  <linearGradient id="q" x1="-244.41" x2="-246.62" y1="273.16" y2="296.02" gradientTransform="matrix(.97406 0 0 .94012 -13.417 15.37)" gradientUnits="userSpaceOnUse" xlink:href="#a"/>
  <linearGradient id="p" x1="-244.41" x2="-246.62" y1="273.16" y2="296.02" gradientTransform="matrix(.37621 -.3001 .32524 .38397 263.79 220.63)" gradientUnits="userSpaceOnUse" xlink:href="#a"/>
  <linearGradient id="o" x1="-244.41" x2="-246.62" y1="273.16" y2="296.02" gradientTransform="matrix(.35079 -.42385 .30326 .5423 260.66 331.53)" gradientUnits="userSpaceOnUse" xlink:href="#a"/>
  <linearGradient id="n" x1="-244.41" x2="-246.62" y1="273.16" y2="296.02" gradientTransform="matrix(.33319 -.50392 .28805 .64476 256.95 398.5)" gradientUnits="userSpaceOnUse" xlink:href="#a"/>
  <linearGradient id="m" x1="-244.41" x2="-246.62" y1="273.16" y2="296.02" gradientTransform="matrix(.90455 .17432 -.17765 .95503 70.363 358.05)" gradientUnits="userSpaceOnUse" xlink:href="#a"/>
  <linearGradient id="l" x1="-244.41" x2="-246.62" y1="273.16" y2="296.02" gradientTransform="matrix(-.14123 -.77789 1.1497 -.12491 -219.13 482.86)" gradientUnits="userSpaceOnUse" xlink:href="#a"/>
  <linearGradient id="k" x1="192.99" x2="451.49" gradientUnits="userSpaceOnUse" xlink:href="#b"/>
  <linearGradient id="c" x1="324.26" x2="345.97" y1="970.68" y2="1005" gradientUnits="userSpaceOnUse" xlink:href="#b"/>
  <linearGradient id="j" x1="-195.58" x2="62.916" gradientUnits="userSpaceOnUse" xlink:href="#b"/>
  <linearGradient id="i" x1="136.64" x2="144.07" y1="300.93" y2="375.93" gradientUnits="userSpaceOnUse" xlink:href="#b"/>
 </defs>
 <g transform="translate(526.79 -99.288)">
  <path d="m-311.42 789.53c41.863-79.715 113.78-183.56 154.81-213.78l57.896-49.671c45.241-36.348 102.14-21.678 115.93-1.0399l42.714-9.6954" fill="none" stroke="#6c6c6c" stroke-width="30"/>
  <path d="m-296.3 752.04c64.72-116.86 119.5-160.7 194.81-228.07l66.467-26.814c45.241-36.348 64.998-38.821 78.792-18.183l14.142 30.305" fill="none" stroke="url(#j)" stroke-opacity=".2698" stroke-width="10"/>
  <g transform="matrix(.54573 0 0 .63734 -136.44 -93.276)">
   <path transform="matrix(1.3179 0 0 .98167 -18.222 -43.621)" d="m303.05 1074.6c0 40.168-19.447 72.731-43.437 72.731s-43.437-32.563-43.437-72.731 19.447-72.731 43.437-72.731 43.437 32.563 43.437 72.731z" fill="url(#d)" stroke="#000" stroke-width="10"/>
   <path transform="translate(76.772 -60.609)" d="m303.05 1074.6c0 40.168-19.447 72.731-43.437 72.731s-43.437-32.563-43.437-72.731 19.447-72.731 43.437-72.731 43.437 32.563 43.437 72.731z" stroke="#000" stroke-width="10"/>
   <path transform="matrix(.8706 0 0 1 -68.508 56.569)" d="m501.04 954.38c0 23.989-13.116 43.437-29.294 43.437s-29.294-19.447-29.294-43.437 13.116-43.437 29.294-43.437 29.294 19.447 29.294 43.437z" fill="#808080" stroke="#000"/>
   <path d="m354.06 980.64c-16.783-20.454-30.541 9.2533-33.335 37.376" fill="none" stroke="url(#c)"/>
  </g>
  <path d="m-2.0203 525.57 14.142-2.0203 8.0812-13.132-3.5355-6.566 20.708-2.5254 22.223 43.942 2.5254 12.627-6.0609 11.112-14.647-2.5254s-7.0711-13.132-8.0812-15.152-11.112-22.728-11.112-22.728l-21.718 5.0508 6.0609 10.102v19.193l-22.728-35.355 5.5558-3.5355z" fill="#000080" stroke="#000"/>
  <path d="m200.01 969.53c10.434-88.287 53.782-206.42 109.1-290.92l46.467-52.528c45.241-36.348 64.998-38.821 78.792-18.183l14.142 30.305" fill="none" stroke="#6c6c6c" stroke-width="30"/>
  <path d="m197.99 963.47c10.434-88.287 53.782-206.42 109.1-290.92l46.467-52.528c45.241-36.348 64.998-38.821 78.792-18.183l14.142 30.305" fill="none" stroke="url(#k)" stroke-opacity=".2698" stroke-width="10"/>
  <path d="m208.09 965.49c10.434-88.287 53.782-206.42 109.1-290.92l46.467-52.528c45.241-22.206 48.836-24.679 62.629-14.142l20.203 34.345" fill="none" stroke="#000" stroke-opacity=".1058" stroke-width="10"/>
  <path d="m62.857 455.22-494.29 154.29 588.57 234.29 251.43-302.86z" fill="none" stroke="#000"/>
  <path d="m71.429 195.22c-176.62 23.001-315.24 37.143-585.71 68.571l648.57 65.714 310.39-133.94-10.246-5.6459z" fill="none" stroke="#6c6c6c" stroke-width="25"/>
  <path d="m71.429 195.22-8.5714 260-491.43 157.14-74.286-345.71z" fill="none" stroke="#6c6c6c" stroke-width="20"/>
  <path d="m451.43 186.65-48.571 354.29" fill="none" stroke="#000"/>
  <path d="m62.857 449.51-477.14 165.71 568.57 228.57 251.43-302.86z" fill="#0ff" fill-opacity=".1287" stroke="#000" stroke-opacity=".3333"/>
  <path d="m158.57 833.79-18.571-512.86 311.43-134.29-48.571 360z" fill="none" stroke="#6c6c6c" stroke-width="20"/>
  <path d="m57.143 449.51 342.86 91.429-247.14 307.14-562.86-224.29z" fill="none" stroke="#6c6c6c" stroke-width="20"/>
  <path d="m60 380.93-494.29 138.57 585.71 181.43 265.71-257.14z" fill="none" stroke="#6c6c6c" stroke-width="15"/>
  <path d="m62.857 280.93-542.86 82.857 622.86 122.86 281.43-180z" fill="none" stroke="#6c6c6c" stroke-width="15"/>
  <path d="m111.43 195.22-8.5714 262.86-454.29 185.71-62.857-374.29" fill="none" stroke="#6c6c6c" stroke-width="8"/>
  <path d="m388.57 186.65-40 337.14-288.57 282.86-37.143-488.57" fill="none" stroke="#6c6c6c" stroke-width="12"/>
  <path d="m160 192.36-17.143 280-402.86 208.57-42.857-400v-5.7143l-1.4286 12.857" fill="none" stroke="#6c6c6c" stroke-width="10"/>
  <path d="m294.29 192.36-17.143 317.14-360 237.14-28.571-445.71" fill="none" stroke="#6c6c6c" stroke-width="12"/>
  <path d="m222.86 195.22-28.571 288.57-371.43 228.57-37.143-417.14" fill="none" stroke="#6c6c6c" stroke-width="11"/>
  <path d="m-28.571 198.08 11.429 280 374.29 120 25.714-368.57" fill="none" stroke="#6c6c6c" stroke-width="11"/>
  <path d="m-137.14 215.22 28.571 297.14 417.14 142.86 17.143-402.86l-5.7143-8.5714 5.7143-5.7143 5.7143 11.429h-5.7143l-5.7143-2.8571 8.5714-8.5714-5.7143 8.5714 2.8572-2.8572 11.429-5.7143h-2.8572" fill="none" stroke="#6c6c6c" stroke-width="12"/>
  <path d="m-254.29 235.22 45.714 300 474.29 170 8.5714-430" fill="none" stroke="#6c6c6c" stroke-width="12"/>
  <path d="m-382.86 243.79 68.571 325.71 530 202.86-1.4286-474.29l8.5714 2.8571-8.5714 8.5714 2.8572-5.7143h-5.7143" fill="none" stroke="#6c6c6c" stroke-width="13"/>
  <path d="m-513.97 256.7 643.63 61.704-0.96382 15.578-645.96-68.09z" fill="url(#v)"/>
  <path d="m-478.64 359.18 615.1 122.43-2.3137 16.86-616.79-129.58z" fill="url(#f)"/>
  <path d="m-478.64 359.18 615.1 122.43-2.3137 16.86-616.79-129.58z" fill="url(#f)"/>
  <path d="m-445.75 515.05 589.53 177.18-3.9509 15.89-590.47-184.18z" fill="url(#u)"/>
  <path d="m-440.08 513.62 583.87 179.15-3.9129 16.066-584.79-186.22z" fill="url(#m)"/>
  <path d="m-513.98 256.7 641.62 63.317-0.96082 15.985-643.95-69.87z" fill="url(#q)"/>
  <path d="m-428.06 604.83 581.38 235.24-5.424 16.13-581.7-242.57z" fill="url(#e)"/>
  <path d="m-428.06 604.83 581.38 235.24-5.424 16.13-581.7-242.57z" fill="url(#e)"/>
  <path d="m-428.06 604.83 581.38 235.24-5.424 16.13-581.7-242.57z" fill="url(#e)"/>
  <path d="m136.68 316.28 320.21-136.68 4.4032 8.0493-323.3 134.09z" fill="url(#t)"/>
  <path d="m-513.98 256.7 641.62 62.511-0.96082 15.781-643.95-68.98z" fill="url(#r)"/>
  <path d="m-452.09 248.22 509.16-56.679 5.166 9.3071-513.34 53.258z" fill="url(#s)"/>
  <path d="m153.95 473.41 269.71-171.82 5.1589 6.8246-272.88 169.86z" fill="url(#p)"/>
  <path d="m158.24 688.55 251.49-242.67 4.8103 9.6389-254.44 239.9z" fill="url(#o)"/>
  <path d="m159.67 822.96 238.87-288.51 4.569 11.46-241.68 285.22z" fill="url(#n)"/>
  <path d="m148.57 850.54-15.595-520.81 19.687-1.3565 7.9185 523.54z" fill="url(#l)"/>
  <path d="m86.873 195.75 32.325-50.854 23.996-15.574 319.93-11.098 14.505 13.367-25.08 62.139 2.0203 2.0203-12.122 2.0203" fill="none" stroke="#6c6c6c" stroke-width="30"/>
  <g transform="translate(-129.3 22.223)">
   <path transform="matrix(1.3179 0 0 .98167 -18.222 -43.621)" d="m303.05 1074.6c0 40.168-19.447 72.731-43.437 72.731s-43.437-32.563-43.437-72.731 19.447-72.731 43.437-72.731 43.437 32.563 43.437 72.731z" fill="url(#d)" stroke="#000" stroke-width="10"/>
   <path transform="translate(76.772 -60.609)" d="m303.05 1074.6c0 40.168-19.447 72.731-43.437 72.731s-43.437-32.563-43.437-72.731 19.447-72.731 43.437-72.731 43.437 32.563 43.437 72.731z" stroke="#000" stroke-width="10"/>
   <path transform="matrix(.8706 0 0 1 -68.508 56.569)" d="m501.04 954.38c0 23.989-13.116 43.437-29.294 43.437s-29.294-19.447-29.294-43.437 13.116-43.437 29.294-43.437 29.294 19.447 29.294 43.437z" fill="#808080" stroke="#000"/>
   <path d="m354.06 980.64c-16.783-20.454-30.541 9.2533-33.335 37.376" fill="none" stroke="url(#c)"/>
  </g>
  <g transform="matrix(.75031 0 0 .72793 227.3 -57.901)">
   <path transform="matrix(1.3179 0 0 .98167 -18.222 -43.621)" d="m303.05 1074.6c0 40.168-19.447 72.731-43.437 72.731s-43.437-32.563-43.437-72.731 19.447-72.731 43.437-72.731 43.437 32.563 43.437 72.731z" fill="url(#d)" stroke="#000" stroke-width="10"/>
   <path transform="translate(76.772 -60.609)" d="m303.05 1074.6c0 40.168-19.447 72.731-43.437 72.731s-43.437-32.563-43.437-72.731 19.447-72.731 43.437-72.731 43.437 32.563 43.437 72.731z" stroke="#000" stroke-width="10"/>
   <path transform="matrix(.8706 0 0 1 -68.508 56.569)" d="m501.04 954.38c0 23.989-13.116 43.437-29.294 43.437s-29.294-19.447-29.294-43.437 13.116-43.437 29.294-43.437 29.294 19.447 29.294 43.437z" fill="#808080" stroke="#000"/>
   <path d="m354.06 980.64c-16.783-20.454-30.541 9.2533-33.335 37.376" fill="none" stroke="url(#c)"/>
  </g>
  <path d="m-309.05 776.92c53.291-96.858 119.5-106.42 174.81-190.92l109.32-86.814c45.241-22.206 48.836-24.679 62.629-14.142l20.203 34.345" fill="none" stroke="#000" stroke-opacity=".1058" stroke-width="10"/>
  <g transform="translate(-649.3 -192.06)">
   <path transform="matrix(1.3179 0 0 .98167 -18.222 -43.621)" d="m303.05 1074.6c0 40.168-19.447 72.731-43.437 72.731s-43.437-32.563-43.437-72.731 19.447-72.731 43.437-72.731 43.437 32.563 43.437 72.731z" fill="url(#d)" stroke="#000" stroke-width="10"/>
   <path transform="translate(76.772 -60.609)" d="m303.05 1074.6c0 40.168-19.447 72.731-43.437 72.731s-43.437-32.563-43.437-72.731 19.447-72.731 43.437-72.731 43.437 32.563 43.437 72.731z" stroke="#000" stroke-width="10"/>
   <path transform="matrix(.8706 0 0 1 -68.508 56.569)" d="m501.04 954.38c0 23.989-13.116 43.437-29.294 43.437s-29.294-19.447-29.294-43.437 13.116-43.437 29.294-43.437 29.294 19.447 29.294 43.437z" fill="#808080" stroke="#000"/>
   <path d="m354.06 980.64c-16.783-20.454-30.541 9.2533-33.335 37.376" fill="none" stroke="url(#c)"/>
  </g>
  <path d="m-335.89 740.32h42.597l-14.199 84.483 21.298 21.802 17.749-2.7253 28.398-100.83-46.146-16.352-78.094 2.7252-7.0994 38.154z" fill="#00f" stroke="#000" stroke-width="1.0886"/>
  <path d="m102.14 306.65-9.4596 4.8511-5.6474 12.786 0.04946 9.7976 2.9146 8.2796 32.857 4.2857v40l11.429 5 18.371-0.74286 7.3428-10.686v-45l22.857-11.429 2.8572-11.429-9.2055-14.414-13.652-2.7287-24.184 14.286z" fill="#00f" stroke="#000" stroke-opacity=".3392"/>
  <path d="m102.14 310.93 40 2.8571 22.143-13.571h8.5714l5.7143 5-36.429 21.429-1.4286 40.714h-4.2857l0.71429-40.714-43.571-5 2.1429-6.4286z" fill="url(#i)" opacity=".5913"/>
  <path d="m175.27 959.47h49.032l-16.344 96.449 24.516 24.89 20.43-3.1112 32.688-115.12-53.118-18.667-89.891 3.1112-8.1719 43.557z" fill="#00f" stroke="#000" stroke-width="1.2479"/>
  <path d="m156.57 146.26-12.122-6.0609-2.0203-9.0914-1.0102-7.0711 3.0304-9.0914 8.0812-5.0508 10.102-1.0102 299.01-9.0914 9.0914 5.0508h-12.122l-11.112 5.0508-3.0305 9.0914-1.0102 8.0812 4.0406 6.0609h10.102l-3.0304 6.0609z" fill="#00f" stroke="#000" stroke-opacity=".4269"/>
  <path d="m158.59 113.93-8.0812 4.0406-1.0102 8.0812 287.89-4.0406v-10.102l8.0812-7.0711z" fill="url(#h)"/>
  <path d="m240 958.08-11.429 88.571" fill="#fff" opacity=".4952" stroke="#fff" stroke-width="4"/>
  <path d="m-280 743.79-14.286 80" fill="none" stroke="#fff"/>
  <path d="m-482.86 294.51-3.5714 5.7143-10.714 0.71429-11.429-0.71429-5.7143-20.714-7.1429-3.5714-3.5714-6.4286v-7.1429l1.4286-7.1429 5-6.4286 42.143-3.5714 12.143 5.7143 2.1428 10-10.714-1.4286-5 6.4286 0.71428 7.1429 4.2857 3.5714 7.1428 4.2857-5.7143 5-15-1.4286z" fill="#00f" stroke="#000" stroke-opacity=".4561"/>
  <path d="m-520.71 259.51 5-7.1429 40 3.5714-9.2857 6.4286-2.1429 6.4286z" fill="url(#g)"/>
  <path d="m527.3 314.95-36.365-179.81-28.284 66.67-6.0609 36.365-32.325 232.34 90.914-48.487z" fill="#fff"/>
  <path d="m425.36 624.86 7.8572 4.2857 10.357-0.71429 7.5-4.6429 3.2143-6.0714v-3.5714l-1.7857-3.5714 27.143-3.2143 15.357 53.571 3.9286 14.286-1.7857 13.929-5.3571 6.4286-6.7857 4.6428-5.7143-2.1428-5.3572-2.5-4.6428-40-3.9286-16.071-33.214 5.7143-5.7143 11.429-2.1429 9.6428-13.571-32.857 11.786-14.286z" fill="#00f" stroke="#000" stroke-opacity=".538"/>
  <path d="m479.64 607.01-15 19.643 12.5 38.214 3.9286 31.786 3.9286 2.8571 8.9286-7.1429 3.2143-3.9286 2.1429-13.929z" fill="#003f00" fill-opacity=".2749" stroke="#000" stroke-opacity=".2339"/>
  <path d="m431.79 644.51-10.357 1.7857 5.3571 13.571z" fill="#000030" fill-opacity=".731" stroke="#000" stroke-opacity=".1637"/>
  <path d="m416.43 634.15 42.143-5.7143-41.786 8.2143-3.2143-0.71429z" fill="#fff" fill-opacity=".5848"/>
 </g>
</svg>
