<svg xmlns="http://www.w3.org/2000/svg" xmlns:xlink="http://www.w3.org/1999/xlink" class="" app-context="doc-2d" x="0px" y="0px" width="595.2755905512" height="300" jvs-fullPath="_new_1507191359912/Untitled"><title/><desc/><defs><linearGradient id="__1507191774898_1__" x1="148.569" y1="0" x2="148.569" y2="167.375" gradientUnits="userSpaceOnUse" gradientTransform="matrix(1 0 0 1 0 0)"><stop offset="0" style="stop-color:rgb(180, 221, 180)"/><stop offset="0.17" style="stop-color:rgb(131, 199, 131)"/><stop offset="0.33" style="stop-color:rgb(82, 177, 82)"/><stop offset="0.67" style="stop-color:rgb(0, 138, 0)"/><stop offset="0.83" style="stop-color:rgb(0, 87, 0)"/><stop offset="1" style="stop-color:rgb(0, 36, 0)"/></linearGradient><link xmlns="http://www.w3.org/1999/xhtml" rel="stylesheet" type="text/css" href="https://fonts.googleapis.com/css?family=Montserrat+Subrayada:regular&amp;subset=latin"></link></defs><g id="jvs-guides" transform="matrix(1 0 0 1 0 0)"/><g id="jvs-content" enable-background="new"><g transform="matrix(1,0,0,1,0,0)" name="Layer" jvs-layer-color="#fb0094" class="jvs-layer selected"><g transform="matrix(1 0 0 1 -232.041 -191.21)">
  <path d="M 257.4 270.51 C 259.51189999999997 266.916 253.23779999999996 234.255 266.1208 227.23 C 279.91179999999997 219.71009999999998 284.42679999999996 222.09199999999998 287.4418 218.6105 C 289.9401 215.725 288.797 212.1099 295.9444 209.8704 C 303.95989999999995 207.35899999999998 327.16839999999996 203.6435 353.5404 204.3345 C 379.7844 205.02211 383.5854 207.8524 395.77439999999996 212.25019999999998 C 402.34229999999997 214.61989999999997 412.12839999999994 217.99249999999998 413.46539999999993 221.16129999999998 C 416.2351999999999 227.72959999999998 420.86959999999993 223.20039999999997 422.82559999999995 227.65329999999997 C 424.7289999999999 231.98629999999997 430.18609999999995 243.91629999999998 431.13129999999995 256.15729999999996 C 436.65979999999996 256.16837 441.6593 256.37632999999994 445.49129999999997 260.20799999999997 C 449.32329999999996 264.03967 453.10529999999994 269.50019999999995 454.11449999999996 281.40299999999996 C 454.81429999999995 289.65619999999996 456.41549999999995 309.87199999999996 456.77849999999995 322.58799999999997 C 457.01449999999994 330.85779999999994 457.83299999999997 346.436 455.92449999999997 350.366 C 454.77439999999996 352.7346 445.1305 361.538 444.2215 363.328 C 443.94771 365.118 449.08639999999997 362.54008 454.5115 366.4153 C 459.4162 369.9185 459.7123 376.2417 459.9712 380.38530000000003 C 460.3643 386.67670000000004 460.83480000000003 413.17530000000005 459.0151 417.30830000000003 C 456.35110000000003 423.3586 447.0271 428.74030000000005 441.7051 430.73330000000004 C 442.41540000000003 441.19130000000007 438.2579 442.84530000000007 438.2579 442.84530000000007 C 438.2579 442.84530000000007 437.49234 453.4623000000001 434.959 456.91730000000007 C 432.0797 460.84380000000004 425.4391 464.4243000000001 414.633 467.3353000000001 C 391.027 473.69520000000006 349.167 471.53060000000005 342.783 471.38610000000006 C 333.4338 471.17447000000004 313.17600000000004 470.30940000000004 304.262 467.9777000000001 C 299.8932 466.8350000000001 288.497 460.3217000000001 288.497 460.3217000000001 C 288.497 460.3217000000001 281.06 455.2127000000001 277.867 453.29690000000005 C 274.67400000000004 451.3811 270.6039 449.77010000000007 268.8285 447.82550000000003 C 265.0702 443.70930000000004 263.81 439.97850000000005 263.81 439.97850000000005 C 263.81 439.97850000000005 254.5585 441.02880000000005 249.797 432.1145000000001 C 247.6274 428.05250000000007 240.6727 401.41050000000007 239.84 394.3695000000001 C 239.38384 390.51180000000005 238.5864 360.28550000000007 239.86359000000002 356.4535000000001 C 241.14078000000003 352.6215000000001 251.78459 341.4235000000001 250.39859 339.59850000000006 C 248.44269 337.02340000000004 237.47659000000002 324.1985000000001 236.87059000000002 311.2445000000001 C 236.41235000000003 301.4881000000001 238.92849 290.23550000000006 240.32999 286.44750000000005 C 241.00533000000001 284.62210000000005 243.50629 278.89160000000004 248.57789 273.77250000000004 C 253.64949 268.65340000000003 253.73539 271.74120000000005 257.40049 270.5099 Z" fill="#3771c8" fill-rule="evenodd" stroke="#000" stroke-width="3" transform="matrix(1 0 0 1 0 0)"/>
  <path d="M 403.31 256 C 417.2 257.8181 436.194 254.6185 443.286 259.9863 C 447.3476 263.0606 452.4195 269.4956 453.429 281.3983 C 454.12872999999996 289.6515 455.72999999999996 309.8673 456.0929 322.5833 C 456.329 330.8531 457.1475 346.4313 455.239 350.3613 C 454.53729999999996 351.8063 448.6298 358.40590000000003 442.76099999999997 363.63430000000005 C 438.7451 363.8519600000001 432.414 363.32556000000005 402.611 360.28780000000006 C 406.40999999999997 334.72980000000007 403.55993 269.38480000000004 403.30998999999997 255.99780000000004 Z" fill="#986601" fill-rule="evenodd" transform="matrix(1 0 0 1 0 0)"/>
  <path d="M 420.4 361.46 C 431.459 362.43322 436.59799999999996 362.7598 443.188 363.42609999999996 C 444.8609 363.59522 451.1551 364.37579999999997 453.537 366.31929999999994 C 458.9326 370.7226999999999 458.7378 376.1456999999999 458.9966 380.28929999999997 C 459.3897 386.5807 459.7068 412.7723 457.8871 416.90529999999995 C 456.5304 419.9865 451.5499 424.03469999999993 446.6001 427.40329999999994 C 444.1826 429.04849999999993 431.3621 433.2697999999999 421.1891 432.89439999999996 C 419.3818 422.81839999999994 419.7647 364.18339999999995 420.40026 361.46039999999994 Z" fill="#986601" fill-rule="evenodd" transform="matrix(1 0 0 1 0 0)"/>
  <path d="M 329.11 469.47 C 308.20300000000003 468.74631000000005 300.629 466.2325 293.338 462.43260000000004 C 290.392 460.8971 283.54940000000005 456.25590000000005 277.778 452.73720000000003 C 274.93370000000004 451.00300000000004 271.8584 449.64470000000006 269.68670000000003 447.9286 C 267.20880000000005 445.9705 264.23850000000004 442.58160000000004 263.10260000000005 439.08340000000004 C 261.81620000000004 435.12170000000003 254.67840000000004 302.70340000000004 256.9073000000001 269.34340000000003 C 257.48795000000007 260.6526 256.93743000000006 255.94240000000002 257.06414000000007 250.23040000000003 C 257.3501300000001 237.34040000000005 258.91654000000005 233.30640000000002 261.36134000000004 229.07340000000002 C 263.47414000000003 225.41500000000002 275.22134000000005 220.53850000000003 279.13334000000003 221.6083 C 282.89704000000006 222.63750000000002 290.09434000000005 229.33040000000003 292.59834 233.94230000000002 C 298.01604000000003 243.91840000000002 299.72374 248.9043 302.76334 259.9433 C 307.96884 278.84630000000004 309.43724000000003 289.5473 310.55814000000004 299.8313 C 311.66894 310.0233 313.21864000000005 316.2453 314.33314 319.5813 C 315.44764 322.9173 313.3885 344.3463 312.66144 355.2943 C 312.08188 364.0213 310.28694 375.1653 310.01684 386.3783 C 309.74038 397.8543 309.80378 402.6283 309.86566 409.63530000000003 C 309.91855 415.507 309.34479999999996 420.0783 310.04341999999997 428.2733 C 310.67285 435.65680000000003 312.73191999999995 442.9583 314.59731999999997 448.0063 C 318.87161999999995 459.5733 329.66531999999995 470.58230000000003 329.10832 469.4703 Z" fill="#556b2f" fill-rule="evenodd" stroke="#000" stroke-width="2" transform="matrix(1 0 0 1 0 0)"/>
  <path d="M 249.48 272.45 C 241.265 279.5315 235.893 293.546 236.285 307.508 C 236.71817 322.77 247.136 337.05699999999996 252.72899999999998 339.231 C 256.5004 340.6967 294.228 339.56681 294.228 339.56681 C 294.228 339.56681 299.156 338.61131 301.6804 336.01691 C 304.20480000000003 333.42251 304.67220000000003 333.04831 305.59110000000004 331.10441 C 307.12330000000003 327.86301 306.49165000000005 319.92341 306.49165000000005 318.44041 C 306.49165000000005 316.95741 305.19715 304.50441 304.44665000000003 298.67041 C 304.11578000000003 296.09841 302.67475 286.00441 301.59285000000006 278.87441 C 301.11806000000007 275.74561 299.12885000000006 271.02901 295.5225500000001 270.28781000000004 C 291.9162500000001 269.54661000000004 266.1585500000001 269.54656000000006 264.7165500000001 269.54656000000006 C 263.2745500000001 269.54656000000006 252.5815500000001 269.77632000000006 249.4805500000001 272.44946000000004 Z" fill="#986601" fill-rule="evenodd" stroke="#000" stroke-width="1.0138" transform="matrix(1 0 0 1 0 0)"/>
  <path d="M 251.3 275.04 C 243.2278 282.17040000000003 239.679 296.01300000000003 240.613 308.97400000000005 C 241.6909 323.92800000000005 246.5441 331.9440000000001 253.687 336.35200000000003 C 258.839 339.53180000000003 281.113 337.8815 281.113 337.8815 C 281.113 337.8815 293.883 337.47618 297.017 335.7198 C 298.89029999999997 334.67010000000005 301.2562 333.9956 303.5079 329.3749 C 305.0781 326.15270000000004 304.6551 320.29830000000004 304.6551 318.8159 C 304.6551 317.33349999999996 303.3663 308.3849 302.7602 300.8419 C 302.34308 295.6503 300.4988 286.15590000000003 299.4561 279.1949 C 298.98726999999997 276.06510000000003 296.1451 273.00210000000004 292.5388 272.2609 C 288.93249999999995 271.51969999999994 264.37579999999997 271.82814 262.93379999999996 271.82814 C 261.49179999999996 271.82814 254.36919999999995 272.32822000000004 251.29979999999995 275.03954000000004 Z" fill="#986601" fill-rule="evenodd" stroke="#000" stroke-width="1.0138" transform="matrix(1 0 0 1 0 0)"/>
  <path d="M 253.26 272.36 C 253.26 272.36 281.062 270.5984 284.638 271.56319 C 288.21399999999994 272.52798 291.38309999999996 273.38119 292.94759999999997 277.24029 C 294.5121 281.09939 295.30949999999996 290.80029 294.81719999999996 298.62029 C 293.1654 298.50585 293.76779999999997 298.5398 292.21219999999994 298.56474000000003 C 292.03390999999993 293.52344000000005 292.27709999999996 289.98234 291.6414899999999 285.81174000000004 C 290.96122999999994 281.34874 290.7009799999999 278.02524000000005 285.5604899999999 275.85454000000004 C 280.4199999999999 273.68384000000003 249.5894899999999 275.42478000000006 249.5894899999999 275.42478000000006 L 253.2600899999999 272.36008000000004 Z" fill="#e3e2db" fill-rule="evenodd" stroke="#000" stroke-width="1.1879" transform="matrix(1 0 0 1 0 0)"/>
  <path d="M 295.41 303.05 L 292.189 303.16052 C 292.189 303.16052 289.58480000000003 309.13822000000005 289.1682 312.75412 C 288.74173 316.45552 291.935 316.84602 294.12010000000004 316.74752 C 296.56460000000004 316.63723 299.1766 314.51092 298.70230000000004 312.77582 C 297.5579 308.58962 295.41 303.05002 295.41 303.05002 Z M 292.8482 310.70660000000004 C 293.22046 310.55526000000003 294.80280000000005 310.48005000000006 295.27680000000004 310.80377000000004 C 295.81366 311.17036 296.31640000000004 312.21337000000005 295.99521000000004 313.09747000000004 C 295.67402000000004 313.98157000000003 294.95341 314.46367000000004 293.67081 314.56017 C 292.38821 314.65667 291.85831 313.74807000000004 291.65261000000004 312.86717000000004 C 291.44691000000006 311.98627000000005 292.38507000000004 310.89477000000005 292.84811 310.70657000000006 Z" fill="#e3e2db" fill-rule="evenodd" stroke="#000" stroke-width="1.1879" transform="matrix(1 0 0 1 0 0)"/>
  <path d="M 292.04 298.75 C 292.04 298.75 290.8354 299.8141 290.1933 301.5216 C 289.55120000000005 303.22909999999996 288.7884 305.4178 289.82056 305.9651 C 290.85272 306.5124 291.89926 303.6427 293.91406 303.6427 C 295.10976 303.6427 296.74846 305.4461 297.75726000000003 304.973 C 298.76606000000004 304.4999 297.90412000000003 302.5618 296.98687 300.97810000000004 C 296.06962 299.3944000000001 295.02247 298.76550000000003 295.02247 298.76550000000003 L 292.04007 298.75005000000004 Z" fill="#e3e2db" fill-rule="evenodd" stroke="#000" stroke-width="1.1879" transform="matrix(1 0 0 1 0 0)"/>
  <path d="M 250.08 337.73 C 248.506 342.3464 239.87 353.469 239.31300000000002 357.49 C 238.49110000000002 363.4277 238.8178 379.91 238.94010000000003 387.451 C 239.08220000000003 396.21380000000005 246.67740000000003 425.1 248.43550000000002 428.692 C 250.2871 432.475 252.377 439.049 262.6505 439.266 C 266.4126 439.34732 272.5389 440.81030000000004 285.2945 441.19460000000004 C 289.39750000000004 441.31557000000004 299.2805 440.91117 303.21650000000005 440.59799000000004 C 307.8498000000001 440.73416000000003 304.35460000000006 426.45999000000006 303.22300000000007 421.10799000000003 C 302.41490000000005 417.28599 302.11750000000006 400.80699000000004 302.71530000000007 389.90799000000004 C 303.28850000000006 379.45899000000003 308.08630000000005 359.18399000000005 308.87910000000005 351.40199000000007 C 309.25070000000005 347.7533900000001 309.0493000000001 343.4960900000001 307.7825 342.13349000000005 C 305.6716 339.8627900000001 303.1102 340.07259000000005 300.71930000000003 339.50279000000006 C 298.32840000000004 338.9329900000001 275.55830000000003 339.6956400000001 271.33230000000003 339.74760000000003 C 268.329 339.78532 257.07730000000004 339.71221 250.07930000000005 337.7309 Z" fill-rule="evenodd" stroke="#000" stroke-width=".97664" transform="matrix(1 0 0 1 0 0)"/>
  <path d="M 251.3 342.82 C 248.93970000000002 344.57529999999997 244.9935 349.8193 242.70870000000002 357.092 C 241.04730000000004 362.3805 242.00303000000002 386.716 242.11461000000003 393.691 C 242.24430000000004 401.79659999999996 248.41361000000003 422.678 250.01781000000003 426.001 C 251.70751 429.5003 253.61461000000003 435.5813 262.98981000000003 435.78209999999996 C 266.42291000000006 435.85731999999996 272.01331000000005 437.21059999999994 283.65281000000004 437.56609999999995 C 287.39691000000005 437.67799999999994 296.41581 437.3039299999999 300.00681000000003 437.01424 C 304.23481000000004 437.1402 301.04541 423.93624 300.01277000000005 418.98524 C 299.2753900000001 415.44984 299.00397000000004 400.20624 299.54951000000005 390.12523999999996 C 300.07255000000004 380.46013999999997 304.4507100000001 361.70624 305.17411000000004 354.50623999999993 C 305.51323 351.1313399999999 305.32943000000006 347.19323999999995 304.17351 345.93283999999994 C 302.24721 343.83243999999996 299.90991 344.0264399999999 297.72811 343.49943999999994 C 295.54631 342.97243999999995 275.43111 343.10959999999994 271.57511 343.15765999999996 C 268.83451 343.19255 252.98311 341.56775999999996 251.30011 342.81974999999994 Z" fill="#986601" fill-rule="evenodd" stroke="#000" stroke-width=".89729" transform="matrix(1 0 0 1 0 0)"/>
  <path d="M 301.49 343.25 C 293.8516 346.9275 291.9155 348.3386 287.853 355.402 C 285.1241 360.14639999999997 282.9021 372.66999999999996 282.49580000000003 377.251 C 279.88520000000005 406.691 292.0289 424.85499999999996 291.53560000000004 432.67499999999995 C 289.88390000000004 432.5605699999999 289.54960000000005 432.59450999999996 287.99390000000005 432.61945 C 288.79130000000004 423.02695 277.79690000000005 408.53544999999997 279.43120000000005 378.82545 C 279.6634 374.60294999999996 279.52770000000004 362.12944999999996 287.12430000000006 350.75444999999996 C 291.19840000000005 344.65414999999996 296.44680000000005 343.23414999999994 296.44680000000005 343.23414999999994 L 301.4902000000001 343.24980999999997 Z" fill="#e3e2db" fill-rule="evenodd" stroke="#000" stroke-width="1.1879" transform="matrix(1 0 0 1 0 0)"/>
  <g transform="translate(-298.58 292.33)" fill="#e3e2db" fill-rule="evenodd" stroke="#000" stroke-width="1.1879">
   <path d="M 581.24 99.284 L 578.019 99.39451000000001 C 578.019 99.39451000000001 575.4148 105.37231000000001 574.9982 108.98811 C 574.57173 112.68951000000001 577.765 113.08001 579.9501 112.98151 C 582.3946 112.87122 585.0066 110.74491 584.5323000000001 109.00981 C 583.3879000000001 104.82361 581.2400000000001 99.28401 581.2400000000001 99.28401 Z M 578.6782000000001 106.9406 C 579.05046 106.78927 580.6328000000001 106.71405 581.1068 107.03777000000001 C 581.6436600000001 107.40437000000001 582.1464 108.44737 581.82521 109.33147000000001 C 581.50402 110.21557000000001 580.78341 110.69767000000002 579.50081 110.79417000000001 C 578.21821 110.89067 577.68831 109.98208000000001 577.48261 109.10127000000001 C 577.27691 108.22046000000002 578.21507 107.12887000000002 578.6781100000001 106.94067000000001 Z" transform="matrix(1 0 0 1 0 0)"/>
   <path d="M 577.87 94.979 C 577.87 94.979 576.6654 96.0431 576.0233 97.7506 C 575.3811999999999 99.45810000000002 574.6184 101.6468 575.6505599999999 102.1941 C 576.6827199999999 102.74140000000001 577.72926 99.8717 579.7440599999999 99.8717 C 580.9397599999999 99.8717 582.5784599999998 101.67500000000001 583.5872599999999 101.202 C 584.59606 100.72899999999998 583.7341199999998 98.7908 582.8168699999999 97.2071 C 581.8996199999999 95.62339999999999 580.8524699999999 94.9945 580.8524699999999 94.9945 L 577.8700699999999 94.97905 Z" transform="matrix(1 0 0 1 0 0)"/>
  </g>
  <g transform="translate(-637.9 293.43)" fill="#556b2f" fill-rule="evenodd" stroke="#000">
   <path d="M 967.26 177.02 C 974.5957999999999 178.9499 991.154 178.673 998.803 178.46290000000002 C 1004.0264 178.31945000000002 1039.062 180.1544 1058.238 172.7289 C 1067.0165 169.3296 1072.1970000000001 165.4292 1074.4740000000002 161.3719 C 1076.4769000000001 157.8025 1076.3010000000002 145.6209 1076.3011000000001 145.6209 C 1076.3012 145.6209 1078.681 82.2549 1077.3097 66.57390000000001 C 1075.8990000000001 50.44290000000001 1075.8399 19.59790000000001 1073.7519 8.260900000000007 C 1011.6619 6.8783000000000065 986.8969 10.939300000000006 950.8619 8.018720000000007 C 951.9725999999999 18.16172000000001 952.7914 25.083720000000007 953.7689 28.369720000000008 C 954.7464000000001 31.65572000000001 952.89831 52.99472000000001 952.5211 63.97672000000001 C 952.2203900000001 72.73102 949.067 82.42872000000001 949.0687 93.65472000000001 C 949.07038 105.14472 948.6357300000001 108.75472 948.82543 115.76072000000002 C 948.98531 121.63082000000001 947.8452599999999 128.52272000000002 948.57918 136.68772 C 949.24046 144.04382 950.4466799999999 149.99172000000002 954.2478799999999 159.85172 C 958.5536799999999 171.02072 967.7388799999999 178.10572 967.2608799999999 177.01872 Z" stroke-width="2.7145" transform="matrix(1 0 0 1 0 0)" stroke="null"/>
   <path d="M 973.76 176.28 C 980.371 178.0192 994.486 176.96328 1001.379 176.77397 C 1006.0865 176.6447 1037.661 178.29836999999998 1054.942 171.60657 C 1059.5359 169.82767 1065.566 164.25157000000002 1068.746 158.98757 C 1071.0416 155.18687 1071.247 146.80557000000002 1071.22 143.74557000000001 C 1071.0534 124.83257000000002 1073.3647 90.07257000000001 1072.1288 75.94157000000001 C 1070.8574999999998 61.404570000000014 1069.5946999999999 17.883570000000013 1067.7131 7.666570000000007 C 1011.7591 6.420570000000007 992.6650999999999 9.273970000000007 959.7830999999999 8.254670000000008 C 962.3966999999999 18.202270000000006 962.4379999999999 55.780670000000015 961.3923999999998 66.07667000000001 C 959.8164999999998 81.59467000000001 956.9705999999999 110.72967 957.1414999999998 117.04267000000002 C 957.2854999999998 122.33277000000001 956.2580999999998 133.38167 956.9195999999998 140.73967000000002 C 957.5154999999999 147.36887000000002 957.7960999999998 151.11567000000002 961.2216999999998 160.00167000000002 C 965.1020999999998 170.06667000000002 974.1856999999999 177.25867000000002 973.7556999999998 176.27867000000003 Z" stroke-width="2.4462" transform="matrix(1 0 0 1 0 0)" stroke="null"/>
  </g>
  <path d="M 310.53 372.35 L 324.59999999999997 373.10292000000004 C 324.59999999999997 373.10292000000004 325.56219999999996 381.76292000000007 323.0843 383.29692000000006 C 321.30649999999997 384.39752000000004 319.2621 384.29567000000003 319.2621 384.29567000000003 L 318.79019999999997 389.97767000000005 L 322.54909999999995 389.91445000000004 L 322.01399999999995 395.26775000000004 L 308.68899999999996 394.50640000000004 L 308.92499999999995 389.9046 L 313.03799999999995 389.80487 L 313.465 384.17767 C 313.465 384.17767 310.57689999999997 384.00489 309.633 381.29096999999996 C 308.6891 378.57704999999993 310.6486 372.46797 310.5306 372.35006999999996 Z" fill="#e6e6e6" fill-rule="evenodd" stroke="#000" stroke-width="2.1241" transform="matrix(1 0 0 1 0 0)"/>
  <path d="M 430.79 362.49 L 442.09700000000004 361.71982 C 442.09700000000004 361.71982 442.50890000000004 367.52132 442.51790000000005 373.61082000000005 C 442.52690000000007 379.7003200000001 441.94380000000007 385.12982000000005 441.94380000000007 385.12982000000005 L 430.45580000000007 385.4915500000001 L 430.7741000000001 380.5419500000001 L 434.0955000000001 380.4552100000001 L 433.8434000000001 375.19081000000006 C 433.8434000000001 375.19081000000006 431.6405000000001 374.44208000000003 430.4646000000001 371.82031000000006 C 429.28870000000006 369.1985400000001 430.9177000000001 362.59791000000007 430.7899000000001 362.4905100000001 Z" fill="#e6e6e6" fill-rule="evenodd" stroke="#000" stroke-width="2.1241" transform="matrix(1 0 0 1 0 0)"/>
  <path d="M 327.53 306.17 C 327.53 306.17 328.8046 335.519 328.89369999999997 339.91900000000004 C 329.03999 347.00120000000004 329.56275999999997 359.16100000000006 333.07269999999994 361.081 C 337.0541999999999 363.2585 342.69739999999996 363.35020000000003 348.67269999999996 363.322 C 356.55409999999995 363.28488 365.77969999999993 363.14343 378.35569999999996 362.2719 C 399.38469999999995 360.8145 416.2587 363.389 424.36069999999995 358.6888 C 427.6858 356.7599 427.71889999999996 353.2946 427.76359999999994 348.39480000000003 C 427.8867599999999 335.0708 424.36139999999995 302.0258 424.21939999999995 300.11580000000004 C 421.9668 300.60362000000003 397.66839999999996 296.502 372.08239999999995 297.9066 C 349.07839999999993 299.1695 327.38839999999993 306.3269 327.53039999999993 306.17 Z" fill="#986601" fill-rule="evenodd" stroke="#000" stroke-width="1.0097" transform="matrix(1 0 0 1 0 0)"/>
  <path d="M 327.9 306.08 C 327.9 306.08 328.53099999999995 335.79699999999997 328.62012999999996 340.197 C 328.76640999999995 347.2792 330.32523 357.203 331.99792999999994 359.942 C 333.6706299999999 362.68100000000004 337.12522999999993 363.9264 341.45052999999996 362.7402 C 345.77583 361.55400000000003 350.50942999999995 359.34270000000004 351.54052999999993 353.935 C 352.5716299999999 348.52729999999997 350.5392299999999 333.676 350.0854299999999 329.572 C 349.5425599999999 324.6634 347.4106299999999 308.847 346.86522999999994 301.511 C 342.5872299999999 302.43741 327.60122999999993 306.41130000000004 327.90022999999997 306.0799 Z" fill="#986601" fill-rule="evenodd" stroke="#000" stroke-width="1.0097" transform="matrix(1 0 0 1 0 0)"/>
  <path d="M 335.54 304.01 L 338.024 303.45333 L 340.5983 360.87333 L 337.8128 361.19506 L 335.5401 304.01006 Z" fill="#e3e2db" fill-rule="evenodd" stroke="#000" stroke-width="1.0097" transform="matrix(1 0 0 1 0 0)"/>
  <path d="M 339.82 339.42 L 336.5972 339.4114 C 336.5972 339.4114 333.77389999999997 345.28880000000004 333.2239 348.8868 C 332.66093 352.5699 335.8376 353.0782 338.0249 353.0604 C 340.47180000000003 353.04053 343.1606 351.0122 342.7507 349.2608 C 341.76180999999997 345.0351 339.82009999999997 339.42 339.82009999999997 339.42 Z M 336.977 346.9766 C 337.35459999999995 346.83913 338.93859999999995 346.82244000000003 339.4004 347.16346000000004 C 339.92334999999997 347.54965000000004 340.38719 348.61056 340.03355 349.48216 C 339.67991 350.35376 338.94194999999996 350.80896 337.65665 350.85796000000005 C 336.37135000000006 350.9069600000001 335.87545 349.97944000000007 335.70245 349.0915600000001 C 335.52945 348.2036800000001 336.5073 347.1476600000001 336.97705 346.97656000000006 Z" fill="#e3e2db" fill-rule="evenodd" stroke="#000" stroke-width="1.1879" transform="matrix(1 0 0 1 0 0)"/>
  <path d="M 336.6 334.99 C 336.6 334.99 335.3569 336.0088 334.6521 337.6915 C 333.94730000000004 339.37420000000003 333.1042 341.53310000000005 334.1154 342.1182 C 335.12660000000005 342.70329999999996 336.27860000000004 339.8742 338.2919 339.9486 C 339.4867 339.99279 341.0577 341.8555 342.0833 341.42 C 343.1089 340.9845 342.31917 339.0159 341.46108 337.39930000000004 C 340.60299 335.7827000000001 339.57977999999997 335.11560000000003 339.57977999999997 335.11560000000003 L 336.59997999999996 334.98994000000005 Z" fill="#e3e2db" fill-rule="evenodd" stroke="#000" stroke-width="1.1879" transform="matrix(1 0 0 1 0 0)"/>
  <g transform="translate(-556.09 348.9)" fill="#556b2f" fill-rule="evenodd" stroke="#000" stroke-width="2">
   <path d="M 843.34 -129.41 C 841.7224 -127.363 836.8012 -127.3455 837.7777 -127.1014 C 838.25347 -126.98245 841.0350999999999 -124.6584 844.2812 -121.5819 C 847.6977 -118.34400000000001 850.6717 -113.0895 852.4091 -110.0479 C 854.9697 -105.5645 859.8711 -91.50489999999999 863.2991 -76.4139 C 864.5336 -70.9785 865.6659999999999 -62.0869 866.7519 -55.8129 C 868.7715 -44.1449 870.3832 -33.731899999999996 870.8021 -32.1699 C 871.79511 -28.4667 874.9251 -28.6166 878.719 -29.799699999999998 C 883.6052000000001 -31.3235 904.485 -35.341899999999995 911.1940000000001 -35.4606 C 917.8806000000001 -35.57728 936.566 -36.7628 945.8460000000001 -36.19963 C 960.4660000000001 -35.30673 978.5000000000001 -31.864729999999998 981.1850000000002 -31.62063 C 983.8700000000002 -31.37653 993.1580000000001 -29.71623 992.7390000000001 -37.61923 C 992.4316900000001 -43.41143 991.4927000000001 -52.63623 990.8055000000002 -57.07123 C 989.9774500000002 -62.41553 987.4819000000001 -87.72523 986.4522000000002 -92.97423 C 985.1655000000002 -99.53373 983.9096000000002 -103.41323 982.4243000000001 -108.19923 C 980.9013000000001 -113.10693 979.1991000000002 -119.07723 976.6465000000002 -122.93723 C 967.9564000000001 -124.18043 971.5665000000001 -125.72263 966.9671000000002 -129.68463 C 965.2425000000002 -131.20693 953.1791000000002 -135.79563 942.2751000000002 -139.57623 C 935.7951000000002 -141.82303000000002 929.7891000000002 -142.85143000000002 922.6691000000002 -143.47023000000002 C 902.6221000000002 -145.21273000000002 881.6781000000002 -143.35349000000002 876.2791000000002 -142.98484000000002 C 871.1125000000002 -142.63208000000003 850.5201000000002 -139.11074000000002 848.0771000000002 -136.91524 C 845.6644000000002 -134.74664 844.3958000000002 -130.74574 843.3401000000002 -129.40974 Z" transform="matrix(1 0 0 1 0 0)"/>
   <path d="M 846.93 -127 C 867.824 -108.238 869.51 -73.75200000000001 871.5219999999999 -57.592 C 872.3481199999999 -50.9581 875.0712 -29.363 878.8649999999999 -30.546 C 883.7511999999999 -32.0698 904.6309999999999 -36.0882 911.3399999999999 -36.2069 C 918.0265999999999 -36.32358 936.7119999999999 -37.5091 945.992 -36.94593 C 960.612 -36.053039999999996 979.3399999999999 -33.02113 981.938 -32.300729999999994 C 989.7438999999999 -30.136429999999994 985.4565 -44.38172999999999 984.7044 -54.96572999999999 C 983.89229 -66.39473 980.9366 -84.13472999999999 979.2305 -91.66972999999999 C 977.6237 -98.76632999999998 971.7125 -122.45272999999999 967.1135 -130.43173 C 965.3889 -131.95403 953.3255 -136.54272999999998 942.4215 -140.32333 C 935.9415 -142.57013 929.9355 -143.59853 922.8155 -144.21733 C 902.7685 -145.95983 881.8245000000001 -144.10059 876.4255 -143.73194 C 871.2589 -143.37918000000002 850.6855 -139.83654 848.2235000000001 -137.66234 C 841.22 -131.47674 842.2681 -131.18634 846.9296 -127.00034 Z" transform="matrix(1 0 0 1 0 0)"/>
  </g>
  <path d="M 361.79 469.65 C 353.08590000000004 469.66952999999995 343.184 471.3053 335.76300000000003 465.63759999999996 C 328.90020000000004 460.67289999999997 324.415 452.41659999999996 324.934 443.84959999999995 C 324.87960000000004 434.44159999999994 325.0903 424.72559999999993 328.3249 415.78959999999995 C 331.5317 407.21289999999993 338.4019 399.9906 347.2129 397.17359999999996 C 361.4289 391.5078 377.0569 391.04209999999995 392.1539 391.57689999999997 C 402.70390000000003 392.4967 413.7749 394.62579999999997 422.3619 401.19039999999995 C 427.9859 407.22569999999996 428.1334 416.0063999999999 429.3865 423.70339999999993 C 430.5029 434.3463999999999 431.0754 446.4303999999999 424.2311 455.40539999999993 C 418.08180000000004 463.35489999999993 407.96810000000005 467.21739999999994 398.12510000000003 467.3943999999999 C 386.05310000000003 468.6711999999999 373.92810000000003 469.4748999999999 361.7891 469.6496999999999 Z" fill="#986601" fill-rule="evenodd" stroke="#000" transform="matrix(1 0 0 1 0 0)"/>
  <path d="M 364.36 469.75 C 356.4909 469.80524 347.40500000000003 471.2483 340.95300000000003 465.6137 C 335.2117 461.0991 331.809 453.84069999999997 332.42150000000004 446.5157 C 332.40490000000005 435.5367 332.819 423.3307 340.38710000000003 414.5897 C 345.99330000000003 407.7845 354.97310000000004 405.4735 363.2101 403.6287 C 373.6761 401.7917 384.4511 401.404 395.0101 402.568 C 402.9108 403.6509 411.2201 405.6565 417.3681 410.99719999999996 C 422.113 416.9736 422.11580000000004 425.0182 423.14430000000004 432.23019999999997 C 424.10800000000006 441.75379999999996 423.78060000000005 452.8492 416.27250000000004 459.85319999999996 C 410.6306 465.48159999999996 402.55850000000004 467.71799999999996 394.77650000000006 467.91089999999997 C 384.66850000000005 468.93989999999997 374.51950000000005 469.6067 364.3595 469.75059999999996 Z" fill="#795100" fill-rule="evenodd" stroke="#000" stroke-width=".86651" transform="matrix(1 0 0 1 0 0)"/>
  <path d="M 367.71 469.8 C 360.2251 469.90306000000004 351.496 471.16970000000003 345.567 465.4676 C 340.5932 461.2832 337.7597 454.7476 338.3912 448.2456 C 338.22880000000004 437.55260000000004 338.9918 425.3066 347.2311 417.45860000000005 C 353.79510000000005 411.38660000000004 362.9941 409.6077 371.5421 408.26670000000007 C 384.1361 406.9695000000001 397.3751 406.68570000000005 409.3261 411.46220000000005 C 413.4771 413.14140000000003 417.627 415.75000000000006 418.9781 420.28710000000007 C 421.28659999999996 427.0667000000001 421.70799999999997 434.35310000000004 422.06759999999997 441.45610000000005 C 422.3449 449.22810000000004 420.0614 457.68910000000005 413.4606 462.43010000000004 C 407.0799 467.6691 398.5386 467.99750000000006 390.6986 468.5801 C 383.0533 469.25234 375.3856 469.6941 367.7106 469.79970000000003 Z" fill="#986601" fill-rule="evenodd" stroke="#000" stroke-width=".79625" transform="matrix(1 0 0 1 0 0)"/>
  <g fill="#8f6000" fill-rule="evenodd" transform="matrix(1 0 0 1 0 0)">
   <path d="M 451.33 309.81 C 451.5709 298.52 452.27124 287.35 450.57632 278.515 C 448.88140000000004 269.67999999999995 442.95492 263.06 439.90532 262.93899999999996 C 436.85572 262.8179999999999 435.98872 274.748 439.08921000000004 286.73299999999995 C 442.1897000000001 298.7179999999999 442.14161 308.05299999999994 441.79911000000004 315.98699999999997 C 441.59334000000007 320.6491 442.02304000000004 340.04499999999996 446.48761 329.907 C 450.95218 319.769 451.22071 315.02599999999995 451.33031 309.81 Z" transform="matrix(1 0 0 1 0 0)"/>
   <path d="M 446.4 384.33 C 446.04319999999996 390.8357 446.52117999999996 390.9804 449.8377 387.0754 C 452.8959 383.4746 449.58326999999997 398.0374 453.2591 410.4784 C 457.64709999999997 425.3294 456.62399999999997 384.4764 456.37579999999997 379.1474 C 455.97999999999996 370.7019 445.88079999999997 361.1394 446.56769999999995 372.7421 C 446.75561999999996 375.9171 446.74775999999997 377.9889 446.40000999999995 384.3301 Z" transform="matrix(1 0 0 1 0 0)"/>
   <path d="M 252 281.25 C 247.3488 284.0498 243.9791 302.133 245.2384 309.289 C 245.94999 313.33299999999997 245.90372000000002 316.1913 247.3564 319.407 C 249.5632 324.2924 252.499 330.52799999999996 255.2726 331.74899999999997 C 259.8719 333.77479999999997 266.7806 334.26009999999997 275.3216 333.5848 C 283.8626 332.9095 295.9386 333.83558 299.3066 329.8676 C 302.6746 325.89961999999997 280.4366 327.51939999999996 283.4866 317.5426 C 286.6077 307.3336 269.6236 317.67689 267.1236 314.1988 C 264.9423 311.1634 270.4626 295.5348 262.142 300.6608 C 251.279 307.3535 256.0343 295.4161 255.2715 291.3842 C 254.6018 287.844 256.5272 278.52320000000003 251.9989 281.24920000000003 Z" transform="matrix(1 0 0 1 0 0)"/>
   <path d="M 292.19 390.43 C 293.7316 393.0996 293.774 395.7966 294.4403 399.6922 C 295.44029 405.53880000000004 294.73953 407.08160000000004 295.78499999999997 412.7112 C 297.01059999999995 419.31 295.71020999999996 428.9272 294.0044 419.98330000000004 C 292.4188 411.6498 288.1241 409.26930000000004 287.9418 407.17330000000004 C 287.69535 404.33940000000007 291.6583 404.28430000000003 290.4811 400.31910000000005 C 289.33840000000004 396.47030000000007 291.22386 388.75710000000004 292.19000000000005 390.4297 Z" transform="matrix(1 0 0 1 0 0)"/>
   <path d="M 253.2 347.28 C 248.5488 350.0798 247.13309999999998 355.1298 246.4032 363.33 C 245.73389 370.8499 246.90695 385.914 247.1464 395.914 C 247.2975 402.2239 249.6724 411.294 253.1581 420.03499999999997 C 255.6326 426.2401 259.22319999999996 429.24379999999996 271.88509999999997 431.76099999999997 C 299.85909999999996 437.32179999999994 264.83469999999994 425.8757 260.56409999999994 416.35699999999997 C 254.34629999999993 402.49899999999997 253.78929999999994 376.193 258.50229999999993 359.14799999999997 C 261.90279999999996 346.84999999999997 279.9022999999999 352.3474 279.13929999999993 348.316 C 278.46959999999996 344.77579999999995 257.72829999999993 344.55519999999996 253.20029999999994 347.28099999999995 Z" transform="matrix(1 0 0 1 0 0)"/>
   <path d="M 372.85 339.5 C 373.9026 328.862 381.7101 343.663 384.82500000000005 346.9627 C 388.88140000000004 351.2596 415.10400000000004 351.3868 416.22600000000006 352.9455 C 419.29560000000004 357.21029999999996 402.60400000000004 357.44719999999995 397.13900000000007 357.86339999999996 C 383.8070000000001 358.87879999999996 360.08900000000006 358.24251999999996 355.28200000000004 358.24058999999994 C 354.14290000000005 358.24012999999997 353.37440000000004 357.0907899999999 353.7846 355.70978999999994 C 355.2608 350.73988999999995 355.0956 342.93978999999996 354.1658 337.1387899999999 C 353.327 331.9036899999999 351.64709999999997 325.5327899999999 351.5791 322.02278999999993 C 351.5139 318.65158999999994 353.61109999999996 318.42918999999995 355.3164 320.6838899999999 C 358.4061 324.7689899999999 371.7964 350.1438899999999 372.8494 339.4998899999999 Z" transform="matrix(1 0 0 1 0 0)"/>
   <path d="M 365.45 398.35 C 362.8164 394.75550000000004 354.12399999999997 397.62080000000003 349.105 399.85200000000003 C 346.60310000000004 400.96400000000006 340.8928 403.32950000000005 338.372 406.0412 C 335.676 408.9414 332.5227 413.6008 330.8929 417.6672 C 329.7528 420.51169999999996 328.657 428.0372 327.604 442.32919999999996 C 331.4681 422.28819999999996 334.09209999999996 414.0612 340.42699999999996 409.5112 C 353.16799999999995 400.35999999999996 367.98299999999995 401.8062 365.45 398.3502 Z" transform="matrix(1 0 0 1 0 0)"/>
  </g>
  <path d="M 366.56 433.6 C 367.6126 422.96200000000005 378.41700000000003 447.12800000000004 381.532 450.427 C 385.5884 454.7239 411.811 454.85110000000003 412.933 456.4098 C 416.0026 460.6746 399.311 460.9114 393.846 461.3277 C 380.514 462.34319999999997 364.288 462.8289 359.481 462.8286 C 351.5995 462.82815 344.977 463.08702 344.42199999999997 443.6136 C 344.2709 438.31390000000005 348.35479999999995 428.9966 348.28679999999997 425.4866 C 348.22159999999997 422.1154 350.31879999999995 421.89300000000003 352.0241 424.1477 C 353.34009999999995 425.88759999999996 352.4042 437.48269999999997 356.83189999999996 439.1477 C 364.43089999999995 442.0054 365.95559999999995 439.70961 366.5603 433.59929999999997 Z" fill="#986601" fill-rule="evenodd" transform="matrix(1 0 0 1 0 0)"/>
  <g fill="#e3e2db" transform="matrix(1 0 0 1 0 0)">
   <g transform="matrix(.9608 .27726 -.27726 .9608 -148.96 156.8)" fill="#e3e2db" fill-rule="evenodd" stroke="#000" stroke-width="1.1879">
    <path d="M 581.24 99.284 L 578.019 99.39451000000001 C 578.019 99.39451000000001 575.4148 105.37231000000001 574.9982 108.98811 C 574.57173 112.68951000000001 577.765 113.08001 579.9501 112.98151 C 582.3946 112.87122 585.0066 110.74491 584.5323000000001 109.00981 C 583.3879000000001 104.82361 581.2400000000001 99.28401 581.2400000000001 99.28401 Z M 578.6782000000001 106.9406 C 579.05046 106.78927 580.6328000000001 106.71405 581.1068 107.03777000000001 C 581.6436600000001 107.40437000000001 582.1464 108.44737 581.82521 109.33147000000001 C 581.50402 110.21557000000001 580.78341 110.69767000000002 579.50081 110.79417000000001 C 578.21821 110.89067 577.68831 109.98208000000001 577.48261 109.10127000000001 C 577.27691 108.22046000000002 578.21507 107.12887000000002 578.6781100000001 106.94067000000001 Z" transform="matrix(1 0 0 1 0 0)"/>
    <path d="M 577.87 94.979 C 577.87 94.979 576.6654 96.0431 576.0233 97.7506 C 575.3811999999999 99.45810000000002 574.6184 101.6468 575.6505599999999 102.1941 C 576.6827199999999 102.74140000000001 577.72926 99.8717 579.7440599999999 99.8717 C 580.9397599999999 99.8717 582.5784599999998 101.67500000000001 583.5872599999999 101.202 C 584.59606 100.72899999999998 583.7341199999998 98.7908 582.8168699999999 97.2071 C 581.8996199999999 95.62339999999999 580.8524699999999 94.9945 580.8524699999999 94.9945 L 577.8700699999999 94.97905 Z" transform="matrix(1 0 0 1 0 0)"/>
   </g>
  </g>
  <g transform="matrix(.93771 -.34743 .34743 .93771 -190.66 529.31)" fill="#e3e2db" fill-rule="evenodd" stroke="#000" stroke-width="1.1879">
   <path d="M 581.24 99.284 L 578.019 99.39451000000001 C 578.019 99.39451000000001 575.4148 105.37231000000001 574.9982 108.98811 C 574.57173 112.68951000000001 577.765 113.08001 579.9501 112.98151 C 582.3946 112.87122 585.0066 110.74491 584.5323000000001 109.00981 C 583.3879000000001 104.82361 581.2400000000001 99.28401 581.2400000000001 99.28401 Z M 578.6782000000001 106.9406 C 579.05046 106.78927 580.6328000000001 106.71405 581.1068 107.03777000000001 C 581.6436600000001 107.40437000000001 582.1464 108.44737 581.82521 109.33147000000001 C 581.50402 110.21557000000001 580.78341 110.69767000000002 579.50081 110.79417000000001 C 578.21821 110.89067 577.68831 109.98208000000001 577.48261 109.10127000000001 C 577.27691 108.22046000000002 578.21507 107.12887000000002 578.6781100000001 106.94067000000001 Z" transform="matrix(1 0 0 1 0 0)"/>
   <path d="M 577.87 94.979 C 577.87 94.979 576.6654 96.0431 576.0233 97.7506 C 575.3811999999999 99.45810000000002 574.6184 101.6468 575.6505599999999 102.1941 C 576.6827199999999 102.74140000000001 577.72926 99.8717 579.7440599999999 99.8717 C 580.9397599999999 99.8717 582.5784599999998 101.67500000000001 583.5872599999999 101.202 C 584.59606 100.72899999999998 583.7341199999998 98.7908 582.8168699999999 97.2071 C 581.8996199999999 95.62339999999999 580.8524699999999 94.9945 580.8524699999999 94.9945 L 577.8700699999999 94.97905 Z" transform="matrix(1 0 0 1 0 0)"/>
  </g>
 </g><text controller-class="Text_box" transform="matrix(1 0 0 1 271.492 66.0561)" width="297.1375427246094" height="167.375" font-family="Montserrat Subrayada" font-size="67" font-style="regular" text-align="left" text-anchor="start" fill="url(#__1507191774898_1__)" stroke="#000000" stroke-width="1.00" stroke-linecap="butt" stroke-linejoin="miter" opacity="1" style="" font-weight="" selected="true"><tspan x="0" y="67" newline=""><![CDATA[Coola]]></tspan><tspan x="0" y="150.6875"><![CDATA[Resor]]></tspan></text></g></g></svg>