<svg xmlns="http://www.w3.org/2000/svg" xmlns:xlink="http://www.w3.org/1999/xlink" class="" app-context="doc-2d" x="0px" y="0px" width="150" height="100" jvs-fullPath="gdrive/plane.svg"><title/><desc/><defs><filter id="ab">
   <feGaussianBlur stdDeviation=".97308"/>
  </filter><filter id="aa">
   <feGaussianBlur stdDeviation="1.14282"/>
  </filter><filter id="x">
   <feGaussianBlur stdDeviation="3.04991"/>
  </filter><filter id="w">
   <feGaussianBlur stdDeviation="7.69536"/>
  </filter><filter id="v">
   <feGaussianBlur stdDeviation="5.61279"/>
  </filter><filter id="s">
   <feGaussianBlur stdDeviation="2.83366"/>
  </filter><filter id="r">
   <feGaussianBlur stdDeviation="2.05358"/>
  </filter><filter id="ad" x="-.06278" y="-.40332" width="1.1256" height="1.8066">
   <feGaussianBlur stdDeviation="3.52245"/>
  </filter><filter id="ac" x="-.02882" y="-.17247" width="1.0576" height="1.3449">
   <feGaussianBlur stdDeviation="6.92901"/>
  </filter><filter id="l" x="-.26631" y="-.04163" width="1.5326" height="1.0832">
   <feGaussianBlur stdDeviation=".86031"/>
  </filter><filter id="k" x="-.11498" y="-.5816" width="1.23" height="2.1632">
   <feGaussianBlur stdDeviation="3.42767"/>
  </filter><filter id="j" x="-.07082" y="-.10321" width="1.1416" height="1.2064">
   <feGaussianBlur stdDeviation="1.27588"/>
  </filter><filter id="i" x="-.06676" y="-.59271" width="1.1335" height="2.1854">
   <feGaussianBlur stdDeviation="1.61715"/>
  </filter><filter id="a" x="-.24429" y="-.90095" width="1.4886" height="2.8019">
   <feGaussianBlur stdDeviation="1.86006"/>
  </filter><filter id="z" x="-.13977" y="-.17649" width="1.2795" height="1.353">
   <feGaussianBlur stdDeviation=".9291"/>
  </filter><filter id="y" x="-.09925" y="-.15173" width="1.1985" height="1.3035">
   <feGaussianBlur stdDeviation="14.58661"/>
  </filter><filter id="u" x="-.07527" y="-.13248" width="1.1506" height="1.265">
   <feGaussianBlur stdDeviation="3.95073"/>
  </filter><filter id="t" x="-.08468" y="-.14904" width="1.1694" height="1.2981">
   <feGaussianBlur stdDeviation="4.73493"/>
  </filter><filter id="h" x="-.25057" y="-.95752" width="1.5011" height="2.915">
   <feGaussianBlur stdDeviation="2.02041"/>
  </filter><linearGradient id="q" x1="-87.424" x2="-88.264" y1="-12.7829" y2="-15.6183" gradientUnits="userSpaceOnUse">
   <stop stop-color="#333" offset="0"/>
   <stop stop-color="#ccc" offset="1"/>
  </linearGradient><linearGradient id="p" x1="-89.1622" x2="-89.0458" y1="-14.5226" y2="-13.1695" gradientUnits="userSpaceOnUse">
   <stop stop-color="#4d4d4d" offset="0"/>
   <stop stop-color="#1a1a1a" stop-opacity="0" offset="1"/>
  </linearGradient><linearGradient id="f" x1="2.1236" x2="2.45671" y1="6.64625" y2="6.71957" gradientUnits="userSpaceOnUse">
   <stop stop-color="#999" offset="0"/>
   <stop stop-color="#4d4d4d" offset="1"/>
  </linearGradient><linearGradient id="d" x1="1.82107" x2="1.90725" y1="6.27202" y2="6.84693" gradientUnits="userSpaceOnUse">
   <stop stop-color="#ccc" offset="0"/>
   <stop stop-color="#1a1a1a" offset="1"/>
  </linearGradient><linearGradient id="c" x1="337.54" x2="333.75" y1="832.52" y2="855.61" gradientUnits="userSpaceOnUse">
   <stop stop-color="#999" offset="0"/>
   <stop stop-color="#1a1a1a" offset="1"/>
  </linearGradient><linearGradient id="o" x1="-41.2653" x2="-44.2742" y1="45.2159" y2="47.5497" gradientUnits="userSpaceOnUse">
   <stop stop-color="#5d575b" offset="0"/>
   <stop stop-color="#808080" offset="1"/>
  </linearGradient><linearGradient id="n" x1="716.14" x2="857.68" y1="606.18" y2="589.34" gradientUnits="userSpaceOnUse">
   <stop offset="0"/>
   <stop stop-opacity="0" offset="1"/>
  </linearGradient><linearGradient id="m" x1="-73.8339" x2="-73.3449" y1="61.1745" y2="63.0131" gradientUnits="userSpaceOnUse">
   <stop stop-color="#e6e6e6" offset="0"/>
   <stop stop-color="#ccc" offset="1"/>
  </linearGradient><linearGradient id="e" x1="1.91306" x2="2.36949" y1="6.41605" y2="6.58793" gradientUnits="userSpaceOnUse"><stop stop-color="#ccc" offset="0"/><stop stop-color="#4d4d4d" offset="1"/></linearGradient><radialGradient id="b" cx="1.6427" cy="6.53603" r="0.0740668" gradientTransform="matrix(-1.7362 2.7329 -2.6692 -1.6958 2828.6 1569.3)" gradientUnits="userSpaceOnUse"><stop stop-color="#ccc" offset="0"/><stop stop-color="#4d4d4d" offset="1"/></radialGradient><linearGradient id="__1507201556950_1__" x1="54.5249" y1="0" x2="54.5249" y2="27.2969" gradientUnits="userSpaceOnUse" gradientTransform="matrix(1 0 0 1 0 0)"><stop offset="0" style="stop-color:rgb(249, 252, 247)"/><stop offset="1" style="stop-color:rgb(245, 249, 240)"/></linearGradient><filter jvs-preview="IMAGE_FILTER_PREVIEW" id="__1507201556950_2__">
            <feComponentTransfer>
                <feFuncR type="table" tableValues="1 0"/>
                <feFuncG type="table" tableValues="1 0"/>
                <feFuncB type="table" tableValues="1 0"/>
            </feComponentTransfer>
        </filter><filter jvs-controller="BevelFilter" id="__1507201556950_3__" jvs-preview="TEXT_FILTER_PREVIEW" x="-40%" y="-40%" width="240%" height="240%">
            <feGaussianBlur in="SourceAlpha" stdDeviation="4" result="blur"/>
            <feOffset in="blur" dx="4" dy="4" result="offsetBlur"/>
            <feSpecularLighting surfaceScale="5" specularConstant=".75" specularExponent="20" lighting-color="#bbbbbb" in="blur" result="highlight">
                <fePointLight x="-5000" y="-10000" z="20000"/>
            </feSpecularLighting>
            <feComposite in="highlight" in2="SourceAlpha" operator="in" result="highlight"/>
            <feComposite in="SourceGraphic" in2="highlight" operator="arithmetic" k1="0" k2="1" k3="1" k4="0" result="highlightText"/>
            <feMerge>
                <feMergeNode in="offsetBlur"/>
                <feMergeNode in="highlightText"/>
            </feMerge>
        </filter><link xmlns="http://www.w3.org/1999/xhtml" rel="stylesheet" type="text/css" href="https://fonts.googleapis.com/css?family=Alegreya+Sans+SC:regular&amp;subset=latin"></link></defs><g id="jvs-guides" transform="matrix(1 0 0 1 0 0)"/><g id="jvs-content" enable-background="new"><g transform="matrix(1,0,0,1,0,0)" name="Layer" jvs-layer-color="#fb0094" class="jvs-layer selected"><g transform="matrix(0.997905 -0.064738 0.064738 0.997905 -18.7887 -97.3333)" filter="url(#__1507201556950_2__)">
  <path d="M 131.94772338867188 134.170166015625 C 131.94772338867188 134.170166015625 132.90550231933594 135.31002807617188 130.98995971679688 136.33590698242188 C 129.0743865966797 137.36181640625 117.47472381591797 141.46531677246094 107.79119110107422 142.71910095214844 C 98.10769653320312 143.97288513183594 71.39558410644531 148.53233337402344 71.39558410644531 148.53233337402344 L 56.49700164794922 151.26805114746094 C 56.49700164794922 151.26805114746094 45.110252380371094 152.06594848632812 43.19458770751953 151.9519500732422 C 41.2789192199707 151.83795166015625 37.55445861816406 151.3820037841797 37.55445861816406 151.3820037841797 C 37.55445861816406 151.3820037841797 40.21487045288086 150.81207275390625 40.959800720214844 150.81207275390625 C 41.70472717285156 150.81207275390625 47.98347091674805 150.69808959960938 54.04921340942383 149.67222595214844 C 60.11495590209961 148.6463623046875 81.71829223632812 145.11279296875 83.3148422241211 144.54281616210938 C 84.9113998413086 143.9728546142578 104.81187438964844 141.46531677246094 106.40840148925781 141.00921630859375 C 108.00496673583984 140.55311584472656 118.75292205810547 138.95753479003906 119.60433959960938 138.50143432617188 C 120.45577239990234 138.04534912109375 124.39321899414062 137.36160278320312 125.56377410888672 136.90565490722656 C 126.73432159423828 136.44972229003906 131.41671752929688 134.16993713378906 131.41671752929688 134.16993713378906 L 131.94882202148438 134.16993713378906 Z" fill="#fff" transform="matrix(1 0 0 1 -9.98865e-7 0.0000028082)"/>
  <g transform="matrix(1 0 0 1 114.256 159.105)">
   <path d="M -86.159912109375 -12.847043991088867 L -88.02507019042969 -12.847043991088867 C -88.10320281982422 -13.477972030639648 -88.960693359375 -14.809377670288086 -88.44625091552734 -15.360336303710938 L -86.64128875732422 -15.875890731811523 C -86.64128875732422 -15.875890731811523 -86.58112335205078 -14.651493072509766 -86.40062713623047 -13.94260025024414 C -86.22013092041016 -13.233701705932617 -86.22012329101562 -12.847007751464844 -86.15996551513672 -12.847007751464844 Z" fill="url(#q)" transform="matrix(1 0 0 1 -0.0000227254 -0.0000237879)"/>
   <path transform="matrix(0.998152 0.0607701 -0.0607701 0.998152 0.645561 -5.73024)" d="M -87.84846496582031 -3.4476678371429443 C -87.84846496582031 -3.4476678371429443 -89.75146484375 -3.141805410385132 -89.37060546875 -2.995201826095581 C -88.98975372314453 -2.848588228225708 -88.03439331054688 -2.9695448875427246 -88.03439331054688 -2.9695448875427246 L -87.84847259521484 -3.447667360305786 Z" fill="#fff" filter="url(#h)"/>
   <path d="M -88.56340789794922 -15.16667366027832 L -90.66924285888672 -13.748884201049805 L -88.0821304321289 -13.168891906738281 L -88.5634536743164 -15.16667366027832 Z" fill="url(#p)" transform="matrix(1 0 0 1 -0.0000227254 -0.0000237879)"/>
   <path transform="matrix(0.996805 0.0798795 -0.0798795 0.996805 -0.978965 -7.55673)" d="M -87.72988891601562 0.33847594261169434 C -87.72988891601562 0.33847594261169434 -89.63032531738281 0.6353132724761963 -89.2499771118164 0.7340103387832642 C -88.86963653564453 0.8327034115791321 -87.91555786132812 0.7084841132164001 -87.91555786132812 0.7084841132164001 L -87.72989654541016 0.3384765684604645 Z" fill="#fff" filter="url(#h)"/>
  </g>
  <path d="M 47.913719177246094 142.42356872558594 L 116.892333984375 130.65724182128906 C 116.892333984375 130.65724182128906 127.08580780029297 129.38522338867188 130.15365600585938 132.1412811279297 C 133.22154235839844 134.89735412597656 132.33090209960938 135.10943603515625 130.84640502929688 136.38143920898438 C 129.36192321777344 137.6534423828125 127.2837142944336 140.51551818847656 116.2984848022461 142.21168518066406 C 105.3132553100586 143.90782165527344 93.93148040771484 145.17982482910156 92.25080108642578 146.66380310058594 C 90.57012939453125 148.1477813720703 88.09423065185547 148.04183959960938 88.09423065185547 148.04183959960938 C 88.09423065185547 148.04183959960938 90.46936798095703 147.19383239746094 89.38079071044922 146.3457794189453 C 88.29220581054688 145.4977569580078 70.67627716064453 149.10179138183594 70.67627716064453 149.10179138183594 C 70.67627716064453 149.10179138183594 69.38973236083984 149.94979858398438 69.19180297851562 150.37379455566406 C 68.99386596679688 150.79782104492188 56.22742462158203 152.38784790039062 52.36759948730469 152.81195068359375 C 48.50776672363281 153.23605346679688 28.22049331665039 149.9498748779297 28.22049331665039 149.9498748779297 L 27.725656509399414 147.61782836914062 L 32.27802276611328 146.23980712890625 L 32.27802276611328 145.7097625732422 L 28.12144660949707 146.55776977539062 C 28.12144660949707 146.55776977539062 27.626609802246094 145.603759765625 27.527647018432617 144.11962890625 C 27.428678512573242 142.63551330566406 26.83489418029785 142.95362854003906 26.83489418029785 142.95362854003906 L 22.28252601623535 143.69561767578125 C 22.28252601623535 143.69561767578125 21.688745498657227 142.52960205078125 22.678394317626953 141.8936004638672 C 23.668046951293945 141.25758361816406 29.012208938598633 139.8795623779297 29.012208938598633 139.8795623779297 L 21.886619567871094 131.39944458007812 L 26.93382453918457 130.65740966796875 C 26.93382453918457 130.65740966796875 26.93382453918457 130.12738037109375 28.715194702148438 131.5054168701172 C 30.49656105041504 132.88345336914062 39.99716567993164 138.60765075683594 39.99716567993164 138.60765075683594 L 45.53920364379883 137.65362548828125 C 45.53920364379883 137.65362548828125 46.227359771728516 137.30026245117188 46.731201171875 138.44509887695312 C 47.81703186035156 140.91253662109375 47.12265396118164 142.42373657226562 47.12265396118164 142.42373657226562 L 47.914363861083984 142.42373657226562 Z" fill="#fff" stroke="#666" stroke-width="0.08607198939764005" transform="matrix(1 0 0 1 -9.98865e-7 0.0000028082)"/>
  <path d="M 124.82157897949219 130.51040649414062 C 124.82157897949219 130.51040649414062 128.36073303222656 130.74014282226562 130.5056610107422 132.348388671875 C 132.6505889892578 133.95660400390625 132.43605041503906 134.07147216796875 130.07667541503906 135.10537719726562 C 127.7173080444336 136.13929748535156 122.140380859375 138.4366455078125 114.52570343017578 139.8151397705078 C 106.9110107421875 141.19366455078125 72.1626205444336 146.82235717773438 68.94467163085938 147.39683532714844 C 65.72672271728516 147.9712677001953 52.85756301879883 150.0389404296875 47.28129196166992 150.3836212158203 C 41.70503616333008 150.72828674316406 28.191143035888672 150.15386962890625 28.191143035888672 150.15386962890625 L 27.976648330688477 148.54563903808594 C 27.976648330688477 148.54563903808594 38.915985107421875 149.005126953125 46.53047561645508 148.4307861328125 C 54.14496612548828 147.85641479492188 111.30836486816406 138.09210205078125 115.9201889038086 137.0582733154297 C 120.53202056884766 136.02442932128906 125.46527099609375 134.64593505859375 125.46527099609375 134.64593505859375 C 125.46527099609375 134.64593505859375 128.36087036132812 132.2335968017578 127.5029296875 131.65914916992188 C 126.64500427246094 131.08468627929688 124.71440887451172 130.51040649414062 124.8216781616211 130.51040649414062 Z" fill="#192851" stroke="#000" stroke-width="0.08607198939764005" transform="matrix(1 0 0 1 -9.98865e-7 0.0000028082)"/>
  <g transform="matrix(1 0 0 1 110.854 63.1151)">
   <path d="M -19.580585479736328 70.58660125732422 C -19.580585479736328 70.58660125732422 -18.848814010620117 70.82410430908203 -18.53834342956543 71.46540832519531 C -18.227880477905273 72.106689453125 -18.072675704956055 74.31558990478516 -18.161375045776367 74.93309020996094 C -18.25006675720215 75.55059051513672 -18.89314079284668 76.02565002441406 -18.89314079284668 76.02565002441406 C -18.89314079284668 76.02565002441406 -19.55838394165039 74.00674438476562 -19.602725982666016 72.62922668457031 C -19.647075653076172 71.25170135498047 -19.669254302978516 70.58663177490234 -19.580562591552734 70.58663177490234 Z" fill="#e6e6e6" stroke="#000" transform="matrix(1 0 0 1 -0.0000375787 -9.01000e-7)"/>
   <path d="M -28.672290802001953 71.03733825683594 C -28.672290802001953 71.03733825683594 -25.900447845458984 71.36986541748047 -24.326030731201172 71.22734832763672 C -22.75161361694336 71.08484649658203 -19.691524505615234 70.4197998046875 -19.691524505615234 70.4197998046875 C -19.691524505615234 70.4197998046875 -19.713703155517578 72.74745178222656 -19.491954803466797 73.81623077392578 C -19.270206451416016 74.885009765625 -18.84889793395996 76.02513885498047 -18.84889793395996 76.02513885498047 C -18.84889793395996 76.02513885498047 -23.17293930053711 76.76142120361328 -24.725223541259766 76.76142120361328 C -26.277523040771484 76.76142120361328 -26.343975067138672 76.73768615722656 -26.343975067138672 76.73768615722656 L -26.499202728271484 76.16764068603516 C -26.499202728271484 76.16764068603516 -28.361858367919922 76.16764068603516 -28.561458587646484 76.04888153076172 C -28.761058807373047 75.93012237548828 -28.82754898071289 75.57386016845703 -28.82754898071289 75.57386016845703 C -28.82754898071289 75.57386016845703 -30.424175262451172 75.38384246826172 -30.55715560913086 75.28883361816406 C -30.690135955810547 75.19384002685547 -30.84542465209961 74.9088134765625 -30.468463897705078 74.74254608154297 C -30.091495513916016 74.57630157470703 -28.916248321533203 73.76874542236328 -28.916248321533203 73.76874542236328 C -28.916248321533203 73.76874542236328 -30.379802703857422 73.98250579833984 -30.934192657470703 73.98250579833984 C -31.488574981689453 73.98250579833984 -32.2203483581543 73.74498748779297 -32.2203483581543 73.74498748779297 L -29.226795196533203 71.36986541748047 L -28.672428131103516 71.03733825683594 Z" fill="url(#f)" stroke="#000" transform="matrix(1 0 0 1 -0.0000375787 -9.01000e-7)"/>
   <path d="M -28.77042007446289 71.01507568359375 C -28.77042007446289 71.01507568359375 -25.589237213134766 71.31462860107422 -24.54043960571289 71.20228576660156 C -23.491626739501953 71.08995056152344 -22.723590850830078 70.87647247314453 -22.547779083251953 71.20228576660156 C -21.910945892333984 72.38259887695312 -25.28268814086914 72.33351135253906 -25.868839263916016 72.40049743652344 C -26.408489227294922 72.46220397949219 -26.882640838623047 72.51282501220703 -26.882640838623047 72.8498306274414 C -26.882640838623047 73.18683624267578 -26.952556610107422 73.48638153076172 -27.721622467041016 73.59870910644531 C -28.490680694580078 73.71104431152344 -29.46950912475586 73.86082458496094 -29.993877410888672 73.86082458496094 C -30.518238067626953 73.86082458496094 -31.706836700439453 73.97315216064453 -31.951519012451172 73.86082458496094 C -32.19619369506836 73.74848937988281 -32.196224212646484 73.71104431152344 -32.196224212646484 73.71104431152344 L -28.770282745361328 71.01504516601562 Z" fill="url(#e)" stroke="#4d4d4d" transform="matrix(1 0 0 1 -0.0000375787 -9.01000e-7)"/>
   <path d="M -26.953250885009766 72.81269073486328 C -26.953250885009766 72.81269073486328 -26.74258804321289 75.39627075195312 -26.531917572021484 76.10765838623047 L -26.32125473022461 76.81907653808594 C -26.32125473022461 76.81907653808594 -21.30044174194336 76.48208618164062 -20.703563690185547 76.33232116699219 C -20.106685638427734 76.18255615234375 -18.91291618347168 76.03276824951172 -18.91291618347168 76.03276824951172 C -18.91291618347168 76.03276824951172 -19.685344696044922 73.14962005615234 -19.755558013916016 72.43822479248047 C -19.825763702392578 71.72684478759766 -19.68533706665039 70.45372772216797 -19.68533706665039 70.45372772216797 L -23.30172348022461 71.05280303955078 C -23.30172348022461 71.05280303955078 -22.318614959716797 71.09025573730469 -22.529293060302734 71.46468353271484 C -22.73996353149414 71.83911895751953 -26.672290802001953 72.43822479248047 -26.672290802001953 72.43822479248047 L -26.953182220458984 72.81266021728516 Z" fill="url(#d)" stroke="#666" stroke-width="0.08626135957809775" transform="matrix(1 0 0 1 -0.0000375787 -9.01000e-7)"/>
   <path d="M -19.646282196044922 70.41645050048828 C -17.85414695739746 70.34607696533203 -17.74311637878418 76.72266387939453 -18.8772029876709 75.88326263427734 C -19.45224380493164 74.30201721191406 -19.900554656982422 72.78730773925781 -19.646282196044922 70.41645050048828 Z" fill="url(#b)" stroke="#666" transform="matrix(1 0 0 1 -0.0000375787 -9.01000e-7)"/>
   <path d="M -18.912763595581055 71.16471862792969 C -18.912763595581055 71.16471862792969 -19.262348175048828 72.88716888427734 -18.912763595581055 74.08537292480469 C -18.56317710876465 75.28357696533203 -18.4233455657959 75.58316040039062 -18.4233455657959 75.58316040039062 C -18.4233455657959 75.58316040039062 -18.8778133392334 74.16029357910156 -18.84285545349121 73.33647918701172 C -18.807897567749023 72.51268005371094 -18.912778854370117 71.23963928222656 -18.912778854370117 71.16471862792969 Z" filter="url(#l)" transform="matrix(1 0 0 1 -0.0000375787 -9.01000e-7)"/>
   <path d="M -20.345714569091797 73.71150207519531 C -20.345714569091797 73.71150207519531 -25.239856719970703 74.38550567626953 -25.86917495727539 74.5352783203125 C -26.498493194580078 74.68505859375 -26.32364273071289 75.13439178466797 -25.379764556884766 74.90972137451172 C -24.43588638305664 74.68507385253906 -20.450603485107422 74.19828796386719 -20.345722198486328 74.04850769042969 C -20.240856170654297 73.89873504638672 -20.31076431274414 73.71150207519531 -20.345722198486328 73.71150207519531 Z" fill="#f9f9f9" filter="url(#k)" transform="matrix(1 0 0 1 -0.0000375787 -9.01000e-7)"/>
   <path d="M -28.176616668701172 71.42750549316406 C -28.176616668701172 71.42750549316406 -30.239131927490234 73.07503509521484 -30.833431243896484 73.44952392578125 C -31.427738189697266 73.82400512695312 -32.12691116333008 74.08607482910156 -31.567569732666016 73.67418670654297 C -31.008220672607422 73.2623062133789 -28.38638687133789 71.2403564453125 -28.38638687133789 71.2403564453125 L -28.176639556884766 71.42758178710938 Z" fill="#1a1a1a" filter="url(#j)" transform="matrix(1 0 0 1 -0.0000375787 -9.01000e-7)"/>
   <path d="M -28.106754302978516 71.68939971923828 C -28.106754302978516 71.68939971923828 -26.28891372680664 71.83917999267578 -25.589740753173828 71.8017349243164 C -24.890560150146484 71.7642822265625 -23.946712493896484 71.72684478759766 -23.806827545166016 71.61450958251953 C -23.666942596435547 71.50218200683594 -23.00277328491211 71.35240936279297 -23.562122344970703 71.65196228027344 C -24.121463775634766 71.95150756835938 -26.114070892333984 72.13873291015625 -26.673442840576172 72.0263900756836 C -27.23282241821289 71.91405487060547 -28.17667007446289 71.98894500732422 -28.17667007446289 71.98894500732422 L -28.106746673583984 71.68939208984375 Z" fill="#fff" filter="url(#i)" transform="matrix(1 0 0 1 -0.0000375787 -9.01000e-7)"/>
   <path d="M -26.428470611572266 76.14515686035156 C -26.428470611572266 76.14515686035156 -28.42111587524414 76.25748443603516 -28.59585952758789 76.0328369140625 C -28.770587921142578 75.80818176269531 -28.980396270751953 74.98435974121094 -28.980396270751953 74.46012878417969 C -28.980396270751953 73.93590545654297 -29.085269927978516 73.82357025146484 -29.085269927978516 73.82357025146484 C -29.085269927978516 73.82357025146484 -28.071475982666016 73.74869537353516 -27.75686264038086 73.59890747070312 C -27.442241668701172 73.44913482666016 -26.84793472290039 73.2244644165039 -26.84793472290039 73.2244644165039 L -26.42844009399414 76.14511108398438 Z" fill="url(#c)" stroke="#4d4d4d" transform="matrix(1 0 0 1 -0.0000375787 -9.01000e-7)"/>
   <path transform="matrix(1 0 0 1 2.68366 11.4164)" d="M -29.566326141357422 63.2833251953125 C -29.566326141357422 63.2833251953125 -31.399921417236328 63.315093994140625 -31.20889663696289 63.505741119384766 C -31.017879486083984 63.696388244628906 -30.44491958618164 63.69639587402344 -30.101123809814453 63.569297790527344 C -29.757335662841797 63.442195892333984 -29.528141021728516 63.34687042236328 -29.566341400146484 63.28331756591797 Z" fill="#fff" filter="url(#a)"/>
   <path transform="matrix(1 0 0 1 -0.0000375787 34.0177)" d="M -29.120548248291016 40.78656005859375 C -29.120548248291016 40.78656005859375 -30.798595428466797 40.807003021240234 -30.623775482177734 40.929630279541016 C -30.448955535888672 41.05226135253906 -29.924610137939453 41.05226516723633 -29.609981536865234 40.97050857543945 C -29.295352935791016 40.888755798339844 -29.08559799194336 40.82743835449219 -29.120563507080078 40.78656005859375 Z" fill="#fff" filter="url(#a)"/>
  </g>
  <g transform="matrix(1 0 0 1 110.558 82.6017)">
   <path d="M -23.49936294555664 53.4281120300293 L -41.422454833984375 56.30777359008789 C -41.422454833984375 56.30777359008789 -41.621604919433594 54.494651794433594 -41.52203369140625 53.74808120727539 C -41.422454833984375 53.00150680541992 -41.422454833984375 52.57490539550781 -41.422454833984375 52.57490539550781 C -41.422454833984375 52.57490539550781 -52.076847076416016 39.02947235107422 -52.575008392333984 37.96318817138672 C -53.07317352294922 36.896907806396484 -55.16395950317383 34.23031234741211 -55.16395950317383 34.23031234741211 L -53.37165832519531 34.123661041259766 L -50.98188018798828 36.36338424682617 C -50.98188018798828 36.36338424682617 -48.89083480834961 35.830108642578125 -47.6959114074707 36.57669448852539 C -46.5009880065918 37.323280334472656 -28.378131866455078 50.761714935302734 -27.08407211303711 51.61509323120117 C -25.79001235961914 52.468482971191406 -24.694293975830078 53.428226470947266 -24.694293975830078 53.428226470947266 L -23.49936294555664 53.428226470947266 Z" fill="url(#o)" transform="matrix(1 0 0 1 -0.0000222846 -0.00000322399)"/>
   <text x="60.81488967857467" y="57.46911119493655" font-family="Arial Narrow" font-size="1.1189354477068179" controller-class="Text_box" transform="matrix(-1 0 0 1 -0.0000214024 -0.00000415714)" text-anchor="start" height="0"><tspan x="0" y="1" newline=""><![CDATA[]]></tspan><tspan x="0" y="2.328125" newline=""><![CDATA[]]></tspan></text>
   <path transform="matrix(1 0 0 1 -12.7909 16.7024)" d="M -16.613208770751953 35.58182144165039 L -27.79812240600586 37.378910064697266 C -27.79812240600586 37.378910064697266 -27.922405242919922 36.2474365234375 -27.86026382446289 35.78150939941406 C -27.79812240600586 35.31558609008789 -27.79812240600586 35.04935073852539 -27.79812240600586 35.04935073852539 C -27.79812240600586 35.04935073852539 -34.44709396362305 26.596721649169922 -34.75801086425781 25.930681228637695 C -35.06891632080078 25.264652252197266 -36.37362289428711 23.60112762451172 -36.37362289428711 23.60112762451172 L -35.255126953125 23.53457260131836 L -33.76376724243164 24.932283401489258 C -33.76376724243164 24.932283401489258 -32.45885467529297 24.59949493408203 -31.713171005249023 25.065399169921875 C -30.96748924255371 25.53130531311035 -19.658283233642578 33.91765213012695 -18.850475311279297 34.44987869262695 C -18.042667388916016 34.98210525512695 -17.359119415283203 35.58135986328125 -17.359119415283203 35.58135986328125 L -16.61343765258789 35.58135986328125 Z" fill="#4d4d4d" filter="url(#y)"/>
   <path d="M -32.47713088989258 48.77726364135742 L -31.903995513916016 48.47032928466797 M -43.41416549682617 40.08063888549805 L -44.13057327270508 40.48988723754883 M -40.11872863769531 42.38264846801758 L -41.026161193847656 42.63843536376953 M -37.44411849975586 44.326576232910156 L -38.25605392456055 44.63351821899414 M -34.19638442993164 46.57749938964844 L -35.15163040161133 46.78212356567383 M -29.13382339477539 51.0792350769043 L -44.847198486328125 39.82492446899414" fill="#5d575b" filter="url(#ab)" stroke="#6b605f" stroke-width="0.1807512024685744" transform="matrix(1 0 0 1 -0.0000222846 -0.00000322399)"/>
   <path d="M -48.0948600769043 43.81553268432617 L -46.853111267089844 43.30397033691406 L -46.70983123779297 42.94587326049805 L -47.85611343383789 41.61582946777344 M -43.55767822265625 45.708316802978516 L -44.51292419433594 46.42449951171875 M -43.08013916015625 48.061519622802734 L -43.127899169921875 48.163841247558594 L -42.029441833496094 47.243019104003906 M -40.5010986328125 49.03351974487305 L -41.50408935546875 49.85202407836914 M -41.265281677246094 52.256378173828125 L -39.020545959472656 50.619361877441406 L -44.895057678222656 43.8155517578125 L -45.94578170776367 44.68520736694336 L -40.262298583984375 51.54014205932617" fill="none" filter="url(#aa)" stroke="#808080" stroke-width="0.12910800176326742" transform="matrix(1 0 0 1 -0.0000222846 -0.00000322399)"/>
   <path d="M -51.05556869506836 36.49943542480469 C -51.05556869506836 36.49943542480469 -52.05855178833008 36.49943542480469 -52.20184326171875 37.062156677246094 L -52.345123291015625 37.62488555908203 C -52.345123291015625 37.62488555908203 -52.05855941772461 36.9598503112793 -51.62872314453125 36.85753631591797 C -51.19887161254883 36.75521469116211 -50.91231155395508 36.60175323486328 -51.05558776855469 36.49943542480469 Z" fill="#333" filter="url(#z)" transform="matrix(1 0 0 1 -0.0000222846 -0.00000322399)"/>
   <path d="M -51.676815032958984 36.19300079345703 Z" fill="none" stroke="#000" transform="matrix(1 0 0 1 -0.0000222846 -0.00000322399)"/>
   <path d="M -23.99753189086914 53.1706657409668 L -41.35758972167969 55.95982360839844 C -41.35758972167969 55.95982360839844 -41.55047607421875 54.20372009277344 -41.45403289794922 53.48057556152344 C -41.35759735107422 52.75742721557617 -41.35758972167969 52.34427261352539 -41.35758972167969 52.34427261352539 C -41.35758972167969 52.34427261352539 -51.676815032958984 39.224647521972656 -52.1591796875 38.19221496582031 C -52.641544342041016 37.159786224365234 -54.66672134399414 34.57665252685547 -54.66672134399414 34.57665252685547 L -52.93071365356445 34.47334671020508 L -50.61603546142578 36.642696380615234 C -50.61603546142578 36.642696380615234 -48.590702056884766 36.126190185546875 -47.4333610534668 36.84930419921875 C -46.27602005004883 37.57241439819336 -28.723522186279297 50.58803939819336 -27.469379425048828 51.414695739746094 C -26.215229034423828 52.24134826660156 -25.15469741821289 53.17081069946289 -25.15469741821289 53.17081069946289 L -23.997364044189453 53.17081069946289 Z" fill="none" filter="url(#x)" stroke="#000" stroke-width="0.19529737066723588" transform="matrix(1 0 0 1 -0.0000222846 -0.00000322399)"/>
  </g>
  <path d="M 28.298139572143555 149.12051391601562 C 28.298139572143555 149.12051391601562 47.281028747558594 149.58001708984375 61.75878143310547 146.70819091796875 C 76.23652648925781 143.8363800048828 119.56537628173828 136.9439697265625 121.28047180175781 136.3695068359375 C 122.99557495117188 135.79505920410156 126.53551483154297 134.7612762451172 126.53551483154297 134.7612762451172 C 126.53551483154297 134.7612762451172 126.53551483154297 133.9571533203125 126.9645004272461 133.72740173339844 C 127.39349365234375 133.4976806640625 129.7530059814453 132.69354248046875 128.57321166992188 131.77456665039062 C 127.39341735839844 130.8555908203125 122.56732177734375 130.0514678955078 119.45719909667969 130.39608764648438 C 116.3470687866211 130.74069213867188 46.314151763916016 142.8024139404297 46.314151763916016 142.8024139404297 C 46.314151763916016 142.8024139404297 46.314151763916016 144.18089294433594 45.241668701171875 144.18089294433594 C 44.169185638427734 144.18089294433594 32.69374084472656 146.7081298828125 32.69374084472656 146.7081298828125 L 32.479244232177734 146.13377380371094 L 27.86760711669922 147.74200439453125 L 28.296588897705078 149.12049865722656 Z" fill="#0997f9" stroke="#000" stroke-width="0.08607198939764005" transform="matrix(1 0 0 1 -9.98865e-7 0.0000028082)"/>
  <path transform="matrix(0.99065 -0.136427 0.136427 0.99065 104.107 85.3276)" d="M 3.0549979209899902 50.7051887512207 C 3.0528154373168945 50.94718933105469 5.585049629211426 51.11905288696289 8.710951805114746 51.089054107666016 C 11.836846351623535 51.05905532836914 14.372615814208984 50.83856201171875 14.374783515930176 50.596553802490234 C 14.376958847045898 50.35455322265625 11.844746589660645 50.18269348144531 8.718814849853516 50.21268844604492 C 5.592919826507568 50.24269485473633 3.0571653842926025 50.46318817138672 3.0549979209899902 50.7051887512207 Z" fill="#fff" filter="url(#ad)"/>
  <path transform="matrix(0.986343 -0.164705 0.164705 0.986343 102.665 81.3995)" d="M -52.96501541137695 55.38423156738281 C -52.965904235839844 55.46631622314453 -42.05336380004883 55.40704345703125 -28.59114646911621 55.25183868408203 C -15.12893009185791 55.096622467041016 -4.21494722366333 54.90424728393555 -4.214064121246338 54.82216262817383 C -4.213172912597656 54.74007034301758 -15.125715255737305 54.79935073852539 -28.58793067932129 54.95455551147461 C -42.05015563964844 55.10976028442383 -52.96412658691406 55.30213165283203 -52.96501541137695 55.38423156738281 Z" fill="#fff" filter="url(#ac)"/>
  <path d="M 131.52325439453125 135.7655487060547 C 131.52325439453125 135.7655487060547 122.05197143554688 140.21092224121094 113.85774993896484 141.35084533691406 C 105.66352081298828 142.49075317382812 74.802490234375 147.73402404785156 68.41629791259766 148.75987243652344 C 62.03010559082031 149.78570556640625 50.75080108642578 151.49557495117188 47.34565353393555 151.72352600097656 C 43.940513610839844 151.95144653320312 39.3642463684082 151.49554443359375 39.3642463684082 151.49554443359375 C 39.3642463684082 151.49554443359375 49.68694305419922 153.31932067871094 52.66666030883789 152.86337280273438 C 55.64638137817383 152.4074249267578 68.09736633300781 150.81167602539062 68.84230041503906 150.46966552734375 C 69.58722686767578 150.12767028808594 70.77210998535156 149.7762908935547 71.62334442138672 149.43434143066406 C 72.4745864868164 149.09234619140625 85.23075103759766 146.36622619628906 86.61410522460938 146.36622619628906 C 87.99746704101562 146.36622619628906 89.80663299560547 146.02426147460938 89.48731994628906 146.82217407226562 C 89.16801452636719 147.6200714111328 87.99746704101562 148.07603454589844 87.99746704101562 148.07603454589844 C 87.99746704101562 148.07603454589844 91.29649353027344 147.84803771972656 92.36053466796875 146.9361572265625 C 93.4245834350586 146.02430725097656 96.7236099243164 144.9984130859375 98.31996154785156 144.77041625976562 C 99.91632843017578 144.5424041748047 117.92407989501953 141.99742126464844 118.85906982421875 141.8067626953125 C 119.87890625 141.5989227294922 125.07013702392578 140.18788146972656 125.98905944824219 139.7550811767578 C 129.1146697998047 138.28292846679688 129.39324951171875 137.7484588623047 130.13816833496094 137.0646209716797 C 130.8831024169922 136.38079833984375 131.94842529296875 135.76568603515625 131.52273559570312 135.76568603515625 Z" fill="#999" transform="matrix(1 0 0 1 -9.98865e-7 0.0000028082)"/>
  <path transform="matrix(0.992351 -0.12345 0.12345 0.992351 -9.98865e-7 0.0000028082)" d="M 103.70304107666016 149.49888610839844 L 102.93004608154297 149.50559997558594 C 102.64710235595703 149.50807189941406 102.41576385498047 149.75523376464844 102.4133071899414 150.0576171875 L 102.3918685913086 152.6898956298828 C 102.3894271850586 152.9923095703125 102.61676025390625 153.23544311523438 102.89969635009766 153.23300170898438 L 103.67269134521484 153.2262725830078 C 103.95560455322266 153.2238006591797 104.18695831298828 152.97665405273438 104.18942260742188 152.67425537109375 L 104.21086120605469 150.0419921875 C 104.21330261230469 149.7395782470703 103.9859390258789 149.4964141845703 103.70304107666016 149.49888610839844" fill="none" stroke="#fff" stroke-width="0.13349484414258048"/>
  <path transform="matrix(0.979027 -0.203729 0.203729 0.979027 -9.98865e-7 0.0000028082)" d="M 88.463134765625 158.93629455566406 L 88.15962219238281 158.9405975341797 C 88.08280181884766 158.9416961669922 88.01966857910156 159.00885009765625 88.0185775756836 159.0906524658203 L 88.01429748535156 159.41390991210938 C 88.0132064819336 159.49571228027344 88.07459259033203 159.56112670898438 88.1513900756836 159.56004333496094 L 88.45491027832031 159.5557403564453 C 88.53172302246094 159.55467224121094 88.59484100341797 159.48748779296875 88.595947265625 159.4056854248047 L 88.60023498535156 159.08245849609375 C 88.60131072998047 159.00064086914062 88.5399398803711 158.93521118164062 88.463134765625 158.93629455566406" fill="#ccc"/>
  <path transform="matrix(0.994132 -0.10817 0.10817 0.994132 -9.98865e-7 0.0000028082)" d="M 102.5165786743164 149.76254272460938 L 102.21369934082031 149.7648468017578 C 102.13705444335938 149.76544189453125 102.0744400024414 149.83236694335938 102.07386779785156 149.914306640625 L 102.0715560913086 150.23818969726562 C 102.07096862792969 150.3201446533203 102.13261413574219 150.3861083984375 102.20925903320312 150.38551330566406 L 102.51213836669922 150.3832244873047 C 102.5887680053711 150.3826141357422 102.65137481689453 150.3157196044922 102.65196228027344 150.23374938964844 L 102.65425872802734 149.90988159179688 C 102.65485382080078 149.82791137695312 102.59321594238281 149.76193237304688 102.5165786743164 149.76254272460938" fill="#ccc"/>
  <path transform="matrix(0.999097 -0.0424799 0.0424799 0.999097 -9.98865e-7 0.0000028082)" d="M 111.24374389648438 142.83407592773438 L 110.94108581542969 142.83497619628906 C 110.86450958251953 142.83522033691406 110.80223083496094 142.9019012451172 110.80200958251953 142.98391723632812 L 110.80108642578125 143.30799865722656 C 110.80084991455078 143.39002990722656 110.86275482177734 143.45632934570312 110.9393310546875 143.45608520507812 L 111.24198913574219 143.45516967773438 C 111.31858825683594 143.45494079589844 111.380859375 143.38827514648438 111.3810806274414 143.30625915527344 L 111.38199615478516 142.98216247558594 C 111.3822250366211 142.90013122558594 111.3203353881836 142.83384704589844 111.24374389648438 142.83407592773438" fill="#ccc"/>
  <path transform="matrix(0.990904 -0.134571 0.134571 0.990904 -9.98865e-7 0.0000028082)" d="M 96.63936614990234 152.52371215820312 L 96.33636474609375 152.52659606933594 C 96.25967407226562 152.52731323242188 96.19693756103516 152.59432983398438 96.19621276855469 152.67623901367188 L 96.19332885742188 152.99998474121094 C 96.19261169433594 153.0819091796875 96.25418853759766 153.14772033691406 96.33086395263672 153.14698791503906 L 96.63387298583984 153.14413452148438 C 96.71053314208984 153.14341735839844 96.7732925415039 153.076416015625 96.77400970458984 152.99449157714844 L 96.77688598632812 152.6707305908203 C 96.7776107788086 152.5888214111328 96.71602630615234 152.5229949951172 96.63936614990234 152.52371215820312" fill="#ccc"/>
  <path transform="matrix(0.99631 -0.08583 0.08583 0.99631 -9.98865e-7 0.0000028082)" d="M 103.06426239013672 147.70826721191406 L 102.76148986816406 147.71009826660156 C 102.68487548828125 147.7105712890625 102.62239074707031 147.7773895263672 102.62191772460938 147.859375 L 102.62006378173828 148.183349609375 C 102.61962890625 148.26535034179688 102.68134307861328 148.33140563964844 102.75796508789062 148.33094787597656 L 103.06072998046875 148.32913208007812 C 103.1373519897461 148.3286590576172 103.19984436035156 148.26182556152344 103.20030212402344 148.17984008789062 L 103.2021484375 147.85585021972656 C 103.20260620117188 147.77386474609375 103.140869140625 147.70779418945312 103.06426239013672 147.70826721191406" fill="#ccc"/>
  <path transform="matrix(0.99631 -0.08583 0.08583 0.99631 -9.98865e-7 0.0000028082)" d="M 102.11712646484375 147.8061981201172 L 101.81436920166016 147.80804443359375 C 101.73773956298828 147.8085174560547 101.67525482177734 147.87533569335938 101.67478942871094 147.9573211669922 L 101.67294311523438 148.2812957763672 C 101.6724853515625 148.36328125 101.73422241210938 148.42935180664062 101.81084442138672 148.4289093017578 L 102.11360931396484 148.42706298828125 C 102.19021606445312 148.4265899658203 102.2527084350586 148.35975646972656 102.25318145751953 148.2777862548828 L 102.25501251220703 147.95379638671875 C 102.25547790527344 147.871826171875 102.19373321533203 147.8057403564453 102.11712646484375 147.8061981201172" fill="#ccc"/>
  <path transform="matrix(0.99631 -0.08583 0.08583 0.99631 -9.98865e-7 0.0000028082)" d="M 94.76536560058594 148.39161682128906 L 94.46258544921875 148.39346313476562 C 94.3859634399414 148.3939208984375 94.32347869873047 148.4607696533203 94.32301330566406 148.5427703857422 L 94.32117462158203 148.86672973632812 C 94.3207015991211 148.94871520996094 94.3824462890625 149.01478576660156 94.45907592773438 149.01431274414062 L 94.76183319091797 149.01248168945312 C 94.83844757080078 149.0120086669922 94.90094757080078 148.94517517089844 94.90141296386719 148.86318969726562 L 94.90325164794922 148.53924560546875 C 94.90372467041016 148.45724487304688 94.84198760986328 148.3911590576172 94.76536560058594 148.39161682128906" fill="#ccc"/>
  <path transform="matrix(0.990572 -0.13699 0.13699 0.990572 -9.98865e-7 0.0000028082)" d="M 83.97948455810547 151.82559204101562 L 83.01262664794922 151.8080596923828 C 82.7298355102539 151.8029327392578 82.49837493896484 152.0438232421875 82.49565124511719 152.34613037109375 L 82.47191619873047 154.97760009765625 C 82.46918487548828 155.27989196777344 82.69622802734375 155.5290985107422 82.9790267944336 155.5342254638672 L 83.94586944580078 155.5517578125 C 84.22866821289062 155.55690002441406 84.46013641357422 155.3159942626953 84.46285247802734 155.01368713378906 L 84.48660278320312 152.38223266601562 C 84.48931884765625 152.07994079589844 84.26228332519531 151.83071899414062 83.97948455810547 151.82559204101562" fill="none" stroke="#fff" stroke-width="0.14044896856211722"/>
  <path transform="matrix(0.99631 -0.08583 0.08583 0.99631 -9.98865e-7 0.0000028082)" d="M 89.18094635009766 148.8245849609375 L 88.87816619873047 148.82644653320312 C 88.80155181884766 148.826904296875 88.73906707763672 148.8937530517578 88.73859405517578 148.97573852539062 L 88.73675537109375 149.29969787597656 C 88.73628997802734 149.38168334960938 88.79801177978516 149.44775390625 88.8746337890625 149.44729614257812 L 89.17740631103516 149.44544982910156 C 89.2540283203125 149.4449920654297 89.3165283203125 149.37815856933594 89.31698608398438 149.2961883544922 L 89.31883239746094 148.9722137451172 C 89.31929016113281 148.8902130126953 89.25756072998047 148.82412719726562 89.18094635009766 148.8245849609375" fill="#ccc"/>
  <path transform="matrix(0.99631 -0.08583 0.08583 0.99631 -9.98865e-7 0.0000028082)" d="M 88.1575927734375 148.96580505371094 L 87.85482025146484 148.96763610839844 C 87.77821350097656 148.9680938720703 87.71571350097656 149.03492736816406 87.7152328491211 149.11691284179688 L 87.7134017944336 149.44088745117188 C 87.71293640136719 149.5228729248047 87.77467346191406 149.58895874023438 87.85130310058594 149.5885009765625 L 88.15406036376953 149.58665466308594 C 88.23068237304688 149.586181640625 88.29317474365234 149.5193634033203 88.29364776611328 149.4373779296875 L 88.29547119140625 149.11338806152344 C 88.29594421386719 149.03140258789062 88.23420715332031 148.96533203125 88.1575927734375 148.96580505371094" fill="#ccc"/>
  <path transform="matrix(0.99631 -0.08583 0.08583 0.99631 -9.98865e-7 0.0000028082)" d="M 87.24813842773438 149.02761840820312 L 86.94538116455078 149.0294647216797 C 86.86874389648438 149.02992248535156 86.80625915527344 149.0967559814453 86.80580139160156 149.17874145507812 L 86.803955078125 149.50271606445312 C 86.8034896850586 149.58468627929688 86.86521911621094 149.65077209472656 86.94184112548828 149.6503143310547 L 87.2446060180664 149.64846801757812 C 87.32122802734375 149.6479949951172 87.38372039794922 149.58116149902344 87.38418579101562 149.49917602539062 L 87.38603210449219 149.1752166748047 C 87.38648223876953 149.09323120117188 87.32475280761719 149.0271453857422 87.24813842773438 149.02761840820312" fill="#ccc"/>
  <path transform="matrix(0.99631 -0.08583 0.08583 0.99631 -9.98865e-7 0.0000028082)" d="M 86.35049438476562 149.09043884277344 L 86.04773712158203 149.09228515625 C 85.97111511230469 149.09275817871094 85.90862274169922 149.15960693359375 85.90814971923828 149.24159240722656 L 85.90631103515625 149.5655517578125 C 85.90585327148438 149.64752197265625 85.96758270263672 149.71360778808594 86.04419708251953 149.71315002441406 L 86.34696197509766 149.7113037109375 C 86.42359161376953 149.71083068847656 86.48607635498047 149.64401245117188 86.4865493774414 149.56201171875 L 86.48838806152344 149.23806762695312 C 86.48885345458984 149.15606689453125 86.4271240234375 149.08999633789062 86.35049438476562 149.09043884277344" fill="#ccc"/>
  <path transform="matrix(0.99631 -0.08583 0.08583 0.99631 -9.98865e-7 0.0000028082)" d="M 85.45176696777344 149.16590881347656 L 85.14900207519531 149.1677703857422 C 85.0723876953125 149.16822814941406 85.0098876953125 149.23507690429688 85.00942993164062 149.31704711914062 L 85.00758361816406 149.64102172851562 C 85.00711059570312 149.72300720214844 85.06885528564453 149.78907775878906 85.14546966552734 149.7886199951172 L 85.44824981689453 149.78677368164062 C 85.52487182617188 149.78631591796875 85.58734893798828 149.719482421875 85.58781433105469 149.63751220703125 L 85.58966064453125 149.31350708007812 C 85.59013366699219 149.23155212402344 85.52839660644531 149.1654510498047 85.45176696777344 149.16590881347656" fill="#ccc"/>
  <path transform="matrix(0.99631 -0.08583 0.08583 0.99631 -9.98865e-7 0.0000028082)" d="M 84.48436737060547 149.2100067138672 L 84.18160247802734 149.21185302734375 C 84.10498809814453 149.21231079101562 84.04248809814453 149.27915954589844 84.04203033447266 149.36114501953125 L 84.0401840209961 149.6851043701172 C 84.03971862792969 149.76707458496094 84.10144805908203 149.8331756591797 84.1780776977539 149.83270263671875 L 84.48085021972656 149.8308563232422 C 84.55746459960938 149.8303985595703 84.61995697021484 149.76356506347656 84.62042236328125 149.68157958984375 L 84.62226104736328 149.35760498046875 C 84.62273406982422 149.275634765625 84.56098175048828 149.20953369140625 84.48436737060547 149.2100067138672" fill="#ccc"/>
  <path transform="matrix(0.99631 -0.08583 0.08583 0.99631 -9.98865e-7 0.0000028082)" d="M 83.61035919189453 149.2748565673828 L 83.30757904052734 149.27671813964844 C 83.23095703125 149.27716064453125 83.16847229003906 149.34400939941406 83.16800689697266 149.42599487304688 L 83.1661605834961 149.7499542236328 C 83.16571044921875 149.83193969726562 83.2274398803711 149.8980255126953 83.30404663085938 149.89755249023438 L 83.60682678222656 149.8957061767578 C 83.6834487915039 149.89524841308594 83.74593353271484 149.8284149169922 83.74639892578125 149.74644470214844 L 83.74823760986328 149.42247009277344 C 83.74871063232422 149.34048461914062 83.68696594238281 149.27439880371094 83.61035919189453 149.2748565673828" fill="#ccc"/>
  <path transform="matrix(0.99631 -0.08583 0.08583 0.99631 -9.98865e-7 0.0000028082)" d="M 80.8078842163086 149.49215698242188 L 80.50511169433594 149.49398803710938 C 80.42849731445312 149.49444580078125 80.36599731445312 149.56129455566406 80.36554718017578 149.6432647705078 L 80.36370086669922 149.96725463867188 C 80.36324310302734 150.0492401123047 80.42497253417969 150.1153106689453 80.5015869140625 150.11485290527344 L 80.80435943603516 150.11300659179688 C 80.88097381591797 150.112548828125 80.94347381591797 150.04571533203125 80.94393157958984 149.96371459960938 L 80.94577026367188 149.63975524902344 C 80.94623565673828 149.55775451660156 80.88451385498047 149.49169921875 80.8078842163086 149.49215698242188" fill="#ccc"/>
  <path transform="matrix(0.99631 -0.08583 0.08583 0.99631 -9.98865e-7 0.0000028082)" d="M 79.86936950683594 149.61517333984375 L 79.56660461425781 149.61700439453125 C 79.48998260498047 149.61746215820312 79.42749786376953 149.68431091308594 79.4270248413086 149.7662811279297 L 79.42517852783203 150.09027099609375 C 79.42472076416016 150.1722412109375 79.4864501953125 150.2383270263672 79.56307983398438 150.2378692626953 L 79.8658447265625 150.23602294921875 C 79.94247436523438 150.23556518554688 80.00495147705078 150.16873168945312 80.00542449951172 150.08673095703125 L 80.00725555419922 149.76275634765625 C 80.00772094726562 149.68077087402344 79.94598388671875 149.6147003173828 79.86936950683594 149.61517333984375" fill="#ccc"/>
  <path transform="matrix(0.99631 -0.08583 0.08583 0.99631 -9.98865e-7 0.0000028082)" d="M 78.9374008178711 149.66229248046875 L 78.63462829589844 149.6641387939453 C 78.55799865722656 149.66461181640625 78.49551391601562 149.7314453125 78.49505615234375 149.8134307861328 L 78.49320983886719 150.13739013671875 C 78.49274444580078 150.21939086914062 78.55448913574219 150.28546142578125 78.631103515625 150.2849884033203 L 78.93387603759766 150.2831573486328 C 79.010498046875 150.28268432617188 79.07298278808594 150.2158660888672 79.07345581054688 150.13388061523438 L 79.07528686523438 149.80990600585938 C 79.07575988769531 149.72792053222656 79.0140151977539 149.66183471679688 78.9374008178711 149.66229248046875" fill="#ccc"/>
  <path transform="matrix(0.99631 -0.08583 0.08583 0.99631 -9.98865e-7 0.0000028082)" d="M 78.00323486328125 149.73472595214844 L 77.70046997070312 149.73655700683594 C 77.62385559082031 149.73703002929688 77.56136322021484 149.8038787841797 77.56089782714844 149.8858642578125 L 77.5590591430664 150.20982360839844 C 77.55859375 150.2918243408203 77.62033081054688 150.35789489746094 77.69694519042969 150.35740661621094 L 77.99971771240234 150.35557556152344 C 78.07633972167969 150.3551025390625 78.1388168334961 150.2882843017578 78.1392822265625 150.206298828125 L 78.14112854003906 149.88232421875 C 78.14159393310547 149.80035400390625 78.0798568725586 149.7342529296875 78.00323486328125 149.73472595214844" fill="#ccc"/>
  <path transform="matrix(0.99631 -0.08583 0.08583 0.99631 -9.98865e-7 0.0000028082)" d="M 77.14212036132812 149.78794860839844 L 76.83934783935547 149.789794921875 C 76.76274108886719 149.79026794433594 76.70023345947266 149.85711669921875 76.69977569580078 149.93907165527344 L 76.69792938232422 150.2630615234375 C 76.69746398925781 150.34503173828125 76.75920104980469 150.41111755371094 76.83582305908203 150.41065979003906 L 77.13858795166016 150.4088134765625 C 77.21520233154297 150.40834045410156 77.27770233154297 150.34152221679688 77.27816772460938 150.259521484375 L 77.2800064086914 149.93557739257812 C 77.28047180175781 149.85357666015625 77.21873474121094 149.78749084472656 77.14212036132812 149.78794860839844" fill="#ccc"/>
  <path transform="matrix(0.99631 -0.08583 0.08583 0.99631 -9.98865e-7 0.0000028082)" d="M 76.23158264160156 149.8624267578125 L 75.92881774902344 149.86427307128906 C 75.8521957397461 149.86473083496094 75.78970336914062 149.93157958984375 75.78923797607422 150.01356506347656 L 75.78739166259766 150.33753967285156 C 75.78694152832031 150.4195098876953 75.84866333007812 150.485595703125 75.9252700805664 150.48512268066406 L 76.22805786132812 150.4832763671875 C 76.3046875 150.48281860351562 76.3671646118164 150.41598510742188 76.36763763427734 150.33399963378906 L 76.36946868896484 150.01004028320312 C 76.36993408203125 149.9280548095703 76.3082046508789 149.86196899414062 76.23158264160156 149.8624267578125" fill="#ccc"/>
  <path transform="matrix(0.99631 -0.08583 0.08583 0.99631 -9.98865e-7 0.0000028082)" d="M 75.29743194580078 149.9348602294922 L 74.99465942382812 149.9366912841797 C 74.91803741455078 149.93714904785156 74.85555267333984 150.00401306152344 74.85507202148438 150.08599853515625 L 74.85324096679688 150.40997314453125 C 74.85277557373047 150.491943359375 74.91450500488281 150.5580291748047 74.99112701416016 150.5575714111328 L 75.29390716552734 150.5557098388672 C 75.37052154541016 150.55526733398438 75.43299865722656 150.48841857910156 75.4334716796875 150.40643310546875 L 75.43531036376953 150.0824737548828 C 75.43578338623047 150.00048828125 75.3740463256836 149.93438720703125 75.29743194580078 149.9348602294922" fill="#ccc"/>
  <path transform="matrix(0.99631 -0.08583 0.08583 0.99631 -9.98865e-7 0.0000028082)" d="M 74.29241943359375 150.00115966796875 L 73.98966217041016 150.0030059814453 C 73.91304016113281 150.0034637451172 73.85054016113281 150.07032775878906 73.85008239746094 150.15231323242188 L 73.8482437133789 150.4762725830078 C 73.84777069091797 150.55825805664062 73.90951538085938 150.62432861328125 73.98612976074219 150.62387084960938 L 74.28890228271484 150.6220245361328 C 74.36552429199219 150.62156677246094 74.42800903320312 150.5547332763672 74.428466796875 150.47274780273438 L 74.43031311035156 150.14878845214844 C 74.43077850341797 150.06680297851562 74.3690414428711 150.00070190429688 74.29241943359375 150.00115966796875" fill="#ccc"/>
  <path transform="matrix(0.99631 -0.08583 0.08583 0.99631 -9.98865e-7 0.0000028082)" d="M 73.35826110839844 150.07359313964844 L 73.05548858642578 150.075439453125 C 72.97887420654297 150.07591247558594 72.9163818359375 150.14276123046875 72.91592407226562 150.2247314453125 L 72.91407775878906 150.5487060546875 C 72.91361236572266 150.6306915283203 72.97534942626953 150.69676208496094 73.05196380615234 150.69630432128906 L 73.354736328125 150.6944580078125 C 73.43135833740234 150.69398498535156 73.49385070800781 150.6271514892578 73.49431610107422 150.54518127441406 L 73.49615478515625 150.22122192382812 C 73.49662780761719 150.13922119140625 73.43489074707031 150.07313537597656 73.35826110839844 150.07359313964844" fill="#ccc"/>
  <path transform="matrix(0.99631 -0.08583 0.08583 0.99631 -9.98865e-7 0.0000028082)" d="M 72.51641082763672 150.17947387695312 L 72.21363830566406 150.1813201904297 C 72.13700866699219 150.18177795410156 72.07451629638672 150.24862670898438 72.07405853271484 150.33062744140625 L 72.07221221923828 150.6545867919922 C 72.0717544555664 150.736572265625 72.13348388671875 150.80264282226562 72.21011352539062 150.8021697998047 L 72.51287841796875 150.8003387451172 C 72.5895004272461 150.79986572265625 72.65198516845703 150.73304748535156 72.65245056152344 150.65106201171875 L 72.65428161621094 150.32708740234375 C 72.6547622680664 150.24510192871094 72.59302520751953 150.1790008544922 72.51641082763672 150.17947387695312" fill="#ccc"/>
  <path transform="matrix(0.99631 -0.08583 0.08583 0.99631 -9.98865e-7 0.0000028082)" d="M 71.58224487304688 150.2519073486328 L 71.27947235107422 150.2537384033203 C 71.20286560058594 150.25421142578125 71.14037322998047 150.32106018066406 71.13990020751953 150.40306091308594 L 71.1380615234375 150.7270050048828 C 71.1375961303711 150.80899047851562 71.19933319091797 150.8750762939453 71.27595520019531 150.87460327148438 L 71.57872009277344 150.8727569580078 C 71.65534973144531 150.87228393554688 71.71783447265625 150.8054656982422 71.71829223632812 150.72348022460938 L 71.72013854980469 150.39950561523438 C 71.72061157226562 150.31753540039062 71.65886688232422 150.2514190673828 71.58224487304688 150.2519073486328" fill="#ccc"/>
  <path transform="matrix(0.99631 -0.08583 0.08583 0.99631 -9.98865e-7 0.0000028082)" d="M 70.74256896972656 150.33245849609375 L 70.4397964477539 150.33432006835938 C 70.3631820678711 150.33477783203125 70.3006820678711 150.401611328125 70.30021667480469 150.48361206054688 L 70.29837799072266 150.8075714111328 C 70.29792022705078 150.88955688476562 70.3596420288086 150.95562744140625 70.43627166748047 150.9551544189453 L 70.73904418945312 150.9533233642578 C 70.81565856933594 150.95286560058594 70.8781509399414 150.88601684570312 70.87861633300781 150.80404663085938 L 70.88045501708984 150.48008728027344 C 70.88092803955078 150.39808654785156 70.81917572021484 150.33200073242188 70.74256896972656 150.33245849609375" fill="#ccc"/>
  <path transform="matrix(0.99631 -0.08583 0.08583 0.99631 -9.98865e-7 0.0000028082)" d="M 69.76116943359375 150.4008331298828 L 69.45840454101562 150.4026641845703 C 69.38178253173828 150.40313720703125 69.31929016113281 150.46998596191406 69.3188247680664 150.5519561767578 L 69.31698608398438 150.8759307861328 C 69.31652069091797 150.95791625976562 69.37826538085938 151.02398681640625 69.45487213134766 151.0235137939453 L 69.75764465332031 151.02166748046875 C 69.83426666259766 151.02120971679688 69.89674377441406 150.9543914794922 69.89722442626953 150.8723907470703 L 69.89905548095703 150.54843139648438 C 69.89952087402344 150.46644592285156 69.8377914428711 150.40036010742188 69.76116943359375 150.4008331298828" fill="#ccc"/>
  <path transform="matrix(0.99631 -0.08583 0.08583 0.99631 -9.98865e-7 0.0000028082)" d="M 68.78196716308594 150.44387817382812 L 68.47919464111328 150.4457244873047 C 68.4025650024414 150.44619750976562 68.340087890625 150.5130157470703 68.3396224975586 150.5950164794922 L 68.33778381347656 150.91897583007812 C 68.33731079101562 151.0009765625 68.39905548095703 151.06703186035156 68.47566986083984 151.0665740966797 L 68.77843475341797 151.06472778320312 C 68.85505676269531 151.06427001953125 68.91755676269531 150.9974365234375 68.91800689697266 150.9154510498047 L 68.91985321044922 150.5914764404297 C 68.92032623291016 150.50949096679688 68.85858154296875 150.4434051513672 68.78196716308594 150.44387817382812" fill="#ccc"/>
  <path transform="matrix(0.99631 -0.08583 0.08583 0.99631 -9.98865e-7 0.0000028082)" d="M 67.89286804199219 150.54568481445312 L 67.59010314941406 150.5475311279297 C 67.51348114013672 150.54800415039062 67.45098114013672 150.61483764648438 67.45053100585938 150.69680786132812 L 67.44868469238281 151.02078247070312 C 67.4482192993164 151.10276794433594 67.50994110107422 151.16883850097656 67.5865707397461 151.1683807373047 L 67.88934326171875 151.1665496826172 C 67.96595764160156 151.16607666015625 68.02845001220703 151.0992431640625 68.02891540527344 151.0172576904297 L 68.03075408935547 150.6932830810547 C 68.03121948242188 150.61129760742188 67.969482421875 150.54522705078125 67.89286804199219 150.54568481445312" fill="#ccc"/>
  <path transform="matrix(0.990572 -0.13699 0.13699 0.990572 -9.98865e-7 0.0000028082)" d="M 58.00825500488281 152.38572692871094 L 57.04139709472656 152.36819458007812 C 56.75859451293945 152.36306762695312 56.527137756347656 152.6039581298828 56.524417877197266 152.90628051757812 L 56.50068664550781 155.53773498535156 C 56.49795150756836 155.84002685546875 56.72499465942383 156.08924865722656 57.007789611816406 156.0943603515625 L 57.974639892578125 156.11187744140625 C 58.25743103027344 156.1170196533203 58.4889030456543 155.87612915039062 58.49162292480469 155.57382202148438 L 58.51536178588867 152.94236755371094 C 58.518089294433594 152.64007568359375 58.291053771972656 152.39085388183594 58.00825500488281 152.38572692871094" fill="none" stroke="#fff" stroke-width="0.14044896856211722"/>
  <path transform="matrix(0.99631 -0.08583 0.08583 0.99631 -9.98865e-7 0.0000028082)" d="M 61.47188186645508 151.06285095214844 L 61.169105529785156 151.064697265625 C 61.09248352050781 151.0651397705078 61.029991149902344 151.13198852539062 61.02952194213867 151.21397399902344 L 61.027687072753906 151.53794860839844 C 61.027217864990234 151.6199188232422 61.088951110839844 151.68600463867188 61.16558074951172 151.685546875 L 61.468345642089844 151.68370056152344 C 61.54496383666992 151.68324279785156 61.60745620727539 151.61639404296875 61.60792541503906 151.534423828125 L 61.60976028442383 151.21044921875 C 61.61022186279297 151.1284637451172 61.54848861694336 151.0623779296875 61.47188186645508 151.06285095214844" fill="#ccc"/>
  <path transform="matrix(0.99631 -0.08583 0.08583 0.99631 -9.98865e-7 0.0000028082)" d="M 60.60857009887695 151.14137268066406 L 60.30579376220703 151.14321899414062 C 60.22917938232422 151.1436767578125 60.166690826416016 151.21054077148438 60.16622543334961 151.29249572753906 L 60.16437911987305 151.61648559570312 C 60.16392135620117 151.6984405517578 60.22565841674805 151.76454162597656 60.302276611328125 151.7640838623047 L 60.60503387451172 151.76223754882812 C 60.68166732788086 151.7617645263672 60.744144439697266 151.69493103027344 60.74461364746094 151.61294555664062 L 60.746456146240234 151.2889862060547 C 60.746925354003906 151.20700073242188 60.685184478759766 151.1409149169922 60.60857009887695 151.14137268066406" fill="#ccc"/>
  <path transform="matrix(0.99631 -0.08583 0.08583 0.99631 -9.98865e-7 0.0000028082)" d="M 59.50474548339844 151.25015258789062 L 59.201961517333984 151.25198364257812 C 59.12534713745117 151.25247192382812 59.06285095214844 151.31930541992188 59.0623893737793 151.4012908935547 L 59.06055450439453 151.7252655029297 C 59.06008529663086 151.80723571777344 59.12181854248047 151.87332153320312 59.19843673706055 151.8728485107422 L 59.5012092590332 151.8710174560547 C 59.57783508300781 151.8705291748047 59.64032745361328 151.80372619628906 59.64078140258789 151.7217254638672 L 59.64262390136719 151.3977813720703 C 59.64309310913086 151.31578063964844 59.58135223388672 151.24969482421875 59.50474548339844 151.25015258789062" fill="#ccc"/>
  <path transform="matrix(0.99631 -0.08583 0.08583 0.99631 -9.98865e-7 0.0000028082)" d="M 58.65450668334961 151.1769256591797 L 58.35175704956055 151.1787567138672 C 58.27513122558594 151.17922973632812 58.212623596191406 151.24606323242188 58.212162017822266 151.32803344726562 L 58.21033477783203 151.65200805664062 C 58.20987319946289 151.73399353027344 58.2716064453125 151.80007934570312 58.34821319580078 151.79962158203125 L 58.65098571777344 151.7977752685547 C 58.72761154174805 151.7973175048828 58.79008865356445 151.73046875 58.790557861328125 151.6484832763672 L 58.79240417480469 151.3245086669922 C 58.79286193847656 151.24253845214844 58.73114013671875 151.17645263671875 58.65450668334961 151.1769256591797" fill="#ccc"/>
  <path transform="matrix(0.99631 -0.08583 0.08583 0.99631 -9.98865e-7 0.0000028082)" d="M 57.78684997558594 151.30604553222656 L 57.484092712402344 151.30787658691406 C 57.4074592590332 151.308349609375 57.344974517822266 151.37518310546875 57.344505310058594 151.45716857910156 L 57.34267044067383 151.78114318847656 C 57.342201232910156 151.86312866210938 57.4039421081543 151.92921447753906 57.480560302734375 151.92872619628906 L 57.7833251953125 151.92689514160156 C 57.85995101928711 151.92642211914062 57.92244338989258 151.85958862304688 57.92289733886719 151.77760314941406 L 57.924739837646484 151.45362854003906 C 57.925201416015625 151.37164306640625 57.86347579956055 151.30555725097656 57.78684997558594 151.30604553222656" fill="#ccc"/>
  <path transform="matrix(0.99631 -0.08583 0.08583 0.99631 -9.98865e-7 0.0000028082)" d="M 56.87195587158203 151.43109130859375 L 56.56919479370117 151.4329376220703 C 56.49257278442383 151.4333953857422 56.43007278442383 151.500244140625 56.42961883544922 151.58221435546875 L 56.427772521972656 151.9062042236328 C 56.427310943603516 151.98817443847656 56.489051818847656 152.05426025390625 56.5656623840332 152.0537872314453 L 56.86843490600586 152.05194091796875 C 56.94505310058594 152.05148315429688 57.007545471191406 151.98464965820312 57.00800704956055 151.9026641845703 L 57.009849548339844 151.5786895751953 C 57.010311126708984 151.4967041015625 56.948570251464844 151.43063354492188 56.87195587158203 151.43109130859375" fill="#ccc"/>
  <path transform="matrix(0.99631 -0.08583 0.08583 0.99631 -9.98865e-7 0.0000028082)" d="M 55.96141815185547 151.50555419921875 L 55.65864181518555 151.5074005126953 C 55.582035064697266 151.5078582763672 55.519535064697266 151.57467651367188 55.519073486328125 151.65667724609375 L 55.517234802246094 151.98065185546875 C 55.51677322387695 152.06265258789062 55.5785026550293 152.1287078857422 55.65511703491211 152.12823486328125 L 55.9578971862793 152.12640380859375 C 56.03451919555664 152.12596130371094 56.09700012207031 152.05911254882812 56.097469329833984 151.9771270751953 L 56.09931182861328 151.6531524658203 C 56.09977340698242 151.57118225097656 56.038047790527344 151.50509643554688 55.96141815185547 151.50555419921875" fill="#ccc"/>
  <path transform="matrix(0.99631 -0.08583 0.08583 0.99631 -9.98865e-7 0.0000028082)" d="M 55.05088424682617 151.5800323486328 L 54.748111724853516 151.5818634033203 C 54.67149353027344 151.5823211669922 54.60900115966797 151.64918518066406 54.6085319519043 151.7311553955078 L 54.60669708251953 152.0551300048828 C 54.60622787475586 152.13710021972656 54.66796112060547 152.2031707763672 54.744590759277344 152.20272827148438 L 55.047359466552734 152.2008819580078 C 55.12397384643555 152.20042419433594 55.186466217041016 152.1335906982422 55.18693542480469 152.05160522460938 L 55.18877029418945 151.72763061523438 C 55.18923568725586 151.64564514160156 55.127506256103516 151.57955932617188 55.05088424682617 151.5800323486328" fill="#ccc"/>
  <path transform="matrix(0.99631 -0.08583 0.08583 0.99631 -9.98865e-7 0.0000028082)" d="M 54.0887565612793 151.7010040283203 L 53.78598403930664 151.7028350830078 C 53.70935821533203 151.70330810546875 53.64686584472656 151.7701416015625 53.64640426635742 151.85214233398438 L 53.644561767578125 152.17608642578125 C 53.644100189208984 152.25808715820312 53.705833435058594 152.3241424560547 53.7824592590332 152.3236846923828 L 54.08523178100586 152.32186889648438 C 54.16184616088867 152.32139587402344 54.224334716796875 152.25454711914062 54.224796295166016 152.17257690429688 L 54.226646423339844 151.84861755371094 C 54.227108001708984 151.76663208007812 54.16537094116211 151.70053100585938 54.0887565612793 151.7010040283203" fill="#ccc"/>
  <path transform="matrix(0.99631 -0.08583 0.08583 0.99631 -9.98865e-7 0.0000028082)" d="M 53.22980880737305 151.72894287109375 L 52.92704391479492 151.7307891845703 C 52.85041427612305 151.7312469482422 52.787933349609375 151.79811096191406 52.78746032714844 151.88006591796875 L 52.785621643066406 152.2040557861328 C 52.785160064697266 152.2860107421875 52.846893310546875 152.35211181640625 52.92351150512695 152.35165405273438 L 53.226280212402344 152.3498077392578 C 53.30289840698242 152.34933471679688 53.36539077758789 152.28250122070312 53.36586380004883 152.20053100585938 L 53.36770248413086 151.87655639648438 C 53.368160247802734 151.79457092285156 53.306434631347656 151.72848510742188 53.22980880737305 151.72894287109375" fill="#ccc"/>
  <path transform="matrix(0.99631 -0.08583 0.08583 0.99631 -9.98865e-7 0.0000028082)" d="M 52.272037506103516 151.7993621826172 L 51.96926498413086 151.8011932373047 C 51.89264678955078 151.80165100097656 51.83015823364258 151.8684844970703 51.829689025878906 151.95046997070312 L 51.827850341796875 152.27444458007812 C 51.82738494873047 152.35643005371094 51.889129638671875 152.42251586914062 51.96574020385742 152.4220428466797 L 52.26850509643555 152.4202117919922 C 52.345130920410156 152.41973876953125 52.407615661621094 152.3529052734375 52.40808868408203 152.27090454101562 L 52.40992736816406 151.9469451904297 C 52.4103889465332 151.86495971679688 52.34865951538086 151.79888916015625 52.272037506103516 151.7993621826172" fill="#ccc"/>
  <path transform="matrix(0.99631 -0.08583 0.08583 0.99631 -9.98865e-7 0.0000028082)" d="M 51.460330963134766 151.8313446044922 L 51.15755844116211 151.83319091796875 C 51.08094024658203 151.8336639404297 51.01845169067383 151.90048217773438 51.017982482910156 151.98248291015625 L 51.01613998413086 152.3064422607422 C 51.01567840576172 152.38844299316406 51.07741165161133 152.45449829101562 51.15403747558594 152.4540557861328 L 51.45680236816406 152.45220947265625 C 51.533424377441406 152.45175170898438 51.595909118652344 152.38490295410156 51.59637451171875 152.3029327392578 L 51.59822463989258 151.97894287109375 C 51.59868621826172 151.89695739746094 51.53695297241211 151.8308868408203 51.460330963134766 151.8313446044922" fill="#ccc"/>
  <path transform="matrix(0.99631 -0.08583 0.08583 0.99631 -9.98865e-7 0.0000028082)" d="M 50.455322265625 151.8976593017578 L 50.15255355834961 151.8994903564453 C 50.0759391784668 151.89996337890625 50.0134391784668 151.96681213378906 50.012977600097656 152.04879760742188 L 50.01113510131836 152.37277221679688 C 50.01066970825195 152.4547576904297 50.07240676879883 152.52084350585938 50.14902877807617 152.52035522460938 L 50.45178985595703 152.51852416992188 C 50.528411865234375 152.51805114746094 50.59090042114258 152.4512176513672 50.59137725830078 152.36924743652344 L 50.59321212768555 152.04527282714844 C 50.59367370605469 151.9633026123047 50.53194808959961 151.89718627929688 50.455322265625 151.8976593017578" fill="#ccc"/>
  <path transform="matrix(0.99631 -0.08583 0.08583 0.99631 -9.98865e-7 0.0000028082)" d="M 49.592018127441406 151.9761962890625 L 49.289241790771484 151.97804260253906 C 49.2126350402832 151.97850036621094 49.15013885498047 152.0453338623047 49.14967727661133 152.1273193359375 L 49.14783477783203 152.4512939453125 C 49.14736557006836 152.5332794189453 49.20911407470703 152.59934997558594 49.28572082519531 152.59889221191406 L 49.58848571777344 152.5970458984375 C 49.66511917114258 152.59658813476562 49.72760772705078 152.52975463867188 49.728065490722656 152.44776916503906 L 49.72990798950195 152.12379455566406 C 49.730369567871094 152.04180908203125 49.66863250732422 151.97572326660156 49.592018127441406 151.9761962890625" fill="#ccc"/>
  <path transform="matrix(0.99631 -0.08583 0.08583 0.99631 -9.98865e-7 0.0000028082)" d="M 48.58700942993164 152.0425262451172 L 48.28424072265625 152.0443572998047 C 48.20762252807617 152.04481506347656 48.1451301574707 152.11166381835938 48.14466857910156 152.1936492919922 L 48.142826080322266 152.5176239013672 C 48.14236068725586 152.59959411621094 48.2040901184082 152.66567993164062 48.28071594238281 152.66522216796875 L 48.5834846496582 152.66336059570312 C 48.660099029541016 152.6629180908203 48.72259521484375 152.59608459472656 48.72306442260742 152.51409912109375 L 48.72490310668945 152.1901397705078 C 48.725364685058594 152.10812377929688 48.66363525390625 152.0420684814453 48.58700942993164 152.0425262451172" fill="#ccc"/>
  <path transform="matrix(0.99631 -0.08583 0.08583 0.99631 -9.98865e-7 0.0000028082)" d="M 47.71935272216797 152.17164611816406 L 47.41658401489258 152.17347717285156 C 47.339962005615234 152.1739501953125 47.27747344970703 152.2407684326172 47.277008056640625 152.32276916503906 L 47.27517318725586 152.64674377441406 C 47.27470016479492 152.72872924804688 47.3364372253418 152.79481506347656 47.41305923461914 152.7943572998047 L 47.715824127197266 152.79249572753906 C 47.79244613647461 152.7920379638672 47.85493469238281 152.72520446777344 47.85540008544922 152.64320373535156 L 47.857234954833984 152.31924438476562 C 47.85770797729492 152.23724365234375 47.79597091674805 152.17117309570312 47.71935272216797 152.17164611816406" fill="#ccc"/>
  <path transform="matrix(0.99631 -0.08583 0.08583 0.99631 -9.98865e-7 0.0000028082)" d="M 46.903282165527344 152.25425720214844 L 46.60050964355469 152.25608825683594 C 46.52389144897461 152.2565460205078 46.46139907836914 152.3234100341797 46.460933685302734 152.40538024902344 L 46.4590950012207 152.72935485839844 C 46.45863342285156 152.8113250732422 46.52036666870117 152.87741088867188 46.59698486328125 152.876953125 L 46.89975357055664 152.87509155273438 C 46.97637176513672 152.87464904785156 47.03886795043945 152.8078155517578 47.03932571411133 152.725830078125 L 47.041168212890625 152.40185546875 C 47.041629791259766 152.3198699951172 46.979896545410156 152.2537841796875 46.903282165527344 152.25425720214844" fill="#ccc"/>
  <path transform="matrix(0.99631 -0.08583 0.08583 0.99631 -9.98865e-7 0.0000028082)" d="M 45.85976028442383 152.21531677246094 L 45.556983947753906 152.21714782714844 C 45.480369567871094 152.21762084960938 45.417877197265625 152.28448486328125 45.417415618896484 152.36643981933594 L 45.41557312011719 152.69041442871094 C 45.41510772705078 152.77239990234375 45.47684097290039 152.83847045898438 45.553462982177734 152.8380126953125 L 45.85622787475586 152.83616638183594 C 45.9328498840332 152.835693359375 45.99534225463867 152.7688751220703 45.99580001831055 152.68690490722656 L 45.99764633178711 152.36293029785156 C 45.998111724853516 152.28094482421875 45.93637466430664 152.21484375 45.85976028442383 152.21531677246094" fill="#ccc"/>
  <path transform="matrix(0.99631 -0.08583 0.08583 0.99631 -9.98865e-7 0.0000028082)" d="M 44.94486618041992 152.3403778076172 L 44.64209747314453 152.3422088623047 C 44.56547164916992 152.3426971435547 44.50297927856445 152.40953063964844 44.50251770019531 152.49151611328125 L 44.50067901611328 152.8154754638672 C 44.50020980834961 152.8974609375 44.56195068359375 152.9635467529297 44.63856887817383 152.96307373046875 L 44.94133377075195 152.96124267578125 C 45.01795959472656 152.96075439453125 45.080448150634766 152.89393615722656 45.080909729003906 152.81195068359375 L 45.0827522277832 152.4879913330078 C 45.083221435546875 152.406005859375 45.021484375 152.33990478515625 44.94486618041992 152.3403778076172" fill="#ccc"/>
  <path transform="matrix(0.99631 -0.08583 0.08583 0.99631 -9.98865e-7 0.0000028082)" d="M 43.987091064453125 152.4107666015625 L 43.684322357177734 152.41261291503906 C 43.60770797729492 152.41307067871094 43.54521560668945 152.4799346923828 43.54475021362305 152.56190490722656 L 43.54290771484375 152.88587951660156 C 43.542442321777344 152.96783447265625 43.60417938232422 153.033935546875 43.68079376220703 153.03347778320312 L 43.98356628417969 153.03163146972656 C 44.06018829345703 153.03115844726562 44.122676849365234 152.96434020996094 44.123138427734375 152.88233947753906 L 44.12498474121094 152.55838012695312 C 44.12544250488281 152.4763946533203 44.06371307373047 152.41030883789062 43.987091064453125 152.4107666015625" fill="#ccc"/>
  <path transform="matrix(0.99631 -0.08583 0.08583 0.99631 -9.98865e-7 0.0000028082)" d="M 43.16666793823242 152.54397583007812 L 42.8639030456543 152.5458221435547 C 42.78728103637695 152.5462646484375 42.724796295166016 152.61309814453125 42.724327087402344 152.69508361816406 L 42.72248077392578 153.01907348632812 C 42.722015380859375 153.10105895996094 42.783756256103516 153.16712951660156 42.860374450683594 153.16665649414062 L 43.16314697265625 153.16482543945312 C 43.23976516723633 153.16436767578125 43.30225372314453 153.09751892089844 43.302711486816406 153.01553344726562 L 43.3045539855957 152.69155883789062 C 43.30501937866211 152.60958862304688 43.243289947509766 152.5435028076172 43.16666793823242 152.54397583007812" fill="#ccc"/>
  <path transform="matrix(0.99631 -0.08583 0.08583 0.99631 -9.98865e-7 0.0000028082)" d="M 42.166019439697266 152.5596923828125 L 41.863250732421875 152.5615234375 C 41.7866325378418 152.56201171875 41.724143981933594 152.62884521484375 41.723670959472656 152.71083068847656 L 41.721839904785156 153.0347900390625 C 41.721370697021484 153.11679077148438 41.783103942871094 153.18284606933594 41.85972595214844 153.18238830566406 L 42.1624870300293 153.18055725097656 C 42.23911666870117 153.18006896972656 42.30160140991211 153.11326599121094 42.302066802978516 153.03126525878906 L 42.30390548706055 152.70730590820312 C 42.30437088012695 152.62530517578125 42.242637634277344 152.5592498779297 42.166019439697266 152.5596923828125" fill="#ccc"/>
  <path transform="matrix(0.99631 -0.08583 0.08583 0.99631 -9.98865e-7 0.0000028082)" d="M 41.34994888305664 152.64230346679688 L 41.047183990478516 152.64413452148438 C 40.97056198120117 152.6446075439453 40.90807342529297 152.71142578125 40.90760803222656 152.7934112548828 L 40.90576934814453 153.11740112304688 C 40.905296325683594 153.1993865966797 40.967037200927734 153.2654571533203 41.04365539550781 153.26499938964844 L 41.34642028808594 153.26315307617188 C 41.42304229736328 153.2626953125 41.485530853271484 153.1958465576172 41.48599624633789 153.11387634277344 L 41.48783874511719 152.78988647460938 C 41.488304138183594 152.70791625976562 41.42656707763672 152.64183044433594 41.34994888305664 152.64230346679688" fill="#ccc"/>
  <path transform="matrix(0.99631 -0.08583 0.08583 0.99631 -9.98865e-7 0.0000028082)" d="M 40.44376754760742 152.66615295410156 L 40.1410026550293 152.66799926757812 C 40.06438064575195 152.66845703125 40.00189208984375 152.7353057861328 40.001426696777344 152.81729125976562 L 39.99959182739258 153.14125061035156 C 39.99912643432617 153.22325134277344 40.060855865478516 153.28932189941406 40.137474060058594 153.2888641357422 L 40.44024658203125 153.28701782226562 C 40.51686096191406 153.28656005859375 40.57935333251953 153.2197265625 40.57981872558594 153.1377410888672 L 40.581661224365234 152.8137664794922 C 40.58212661743164 152.73178100585938 40.520389556884766 152.6656951904297 40.44376754760742 152.66615295410156" fill="#ccc"/>
  <path transform="matrix(0.99631 -0.08583 0.08583 0.99631 -9.98865e-7 0.0000028082)" d="M 39.679298400878906 152.70223999023438 L 39.376529693603516 152.70408630371094 C 39.29990768432617 152.7045440673828 39.237422943115234 152.77139282226562 39.23695755004883 152.85336303710938 L 39.2351188659668 153.17733764648438 C 39.234649658203125 153.25930786132812 39.296382904052734 153.32540893554688 39.373008728027344 153.32493591308594 L 39.67577362060547 153.32308959960938 C 39.75239181518555 153.3226318359375 39.814876556396484 153.25579833984375 39.81534957885742 153.173828125 L 39.81718444824219 152.84983825683594 C 39.81765365600586 152.7678680419922 39.75592041015625 152.70176696777344 39.679298400878906 152.70223999023438" fill="#ccc"/>
  <path transform="matrix(0.99631 -0.08583 0.08583 0.99631 -9.98865e-7 0.0000028082)" d="M 38.70845031738281 152.92440795898438 L 38.40568542480469 152.92625427246094 C 38.329063415527344 152.92672729492188 38.26657485961914 152.99356079101562 38.26611328125 153.07554626464844 L 38.2642707824707 153.39952087402344 C 38.2638053894043 153.4814910888672 38.32554244995117 153.54757690429688 38.40216064453125 153.547119140625 L 38.70492935180664 153.54527282714844 C 38.78154754638672 153.5447998046875 38.84403610229492 153.4779815673828 38.84450149536133 153.39598083496094 L 38.846343994140625 153.07203674316406 C 38.846805572509766 152.9900360107422 38.78507614135742 152.9239501953125 38.70845031738281 152.92440795898438" fill="#ccc"/>
  <path transform="matrix(0.986707 -0.16251 0.16251 0.986707 -9.98865e-7 0.0000028082)" d="M 22.257709503173828 153.985107421875 L 21.130830764770508 153.9141082763672 C 20.891834259033203 153.89906311035156 20.69587516784668 154.0942840576172 20.693145751953125 154.35015869140625 L 20.669397354125977 156.57754516601562 C 20.66666603088379 156.83343505859375 20.85820198059082 157.05307006835938 21.097198486328125 157.06813049316406 L 22.224071502685547 157.13914489746094 C 22.463071823120117 157.15420532226562 22.659029006958008 156.95896911621094 22.66175651550293 156.7030792236328 L 22.685508728027344 154.47572326660156 C 22.688236236572266 154.21981811523438 22.496702194213867 154.00018310546875 22.257709503173828 153.985107421875" fill="none" stroke="#fff" stroke-width="0.12935660869421678"/>
  <path d="M 127.27088928222656 135.90481567382812 L 128.53823852539062 134.99485778808594 C 128.53823852539062 134.99485778808594 128.69143676757812 135.158935546875 128.31541442871094 134.6070098876953 C 127.93938446044922 134.05508422851562 127.59121704101562 133.6224822998047 127.59121704101562 133.6224822998047 C 127.59121704101562 133.6224822998047 126.9645004272461 133.7865447998047 126.85308074951172 134.05508422851562 C 126.74166870117188 134.32357788085938 126.69989013671875 134.3832550048828 126.76953125 134.65174865722656 C 126.83915710449219 134.92025756835938 127.2430419921875 135.9346466064453 127.27090454101562 135.90478515625 Z" fill="#ccc" stroke="#000" stroke-width="0.08607198939764005" transform="matrix(1 0 0 1 -9.98865e-7 0.0000028082)"/>
  <path d="M 128.69154357910156 134.8153076171875 C 128.69154357910156 134.8153076171875 129.03970336914062 134.54676818847656 129.151123046875 134.14402770996094 C 129.2625274658203 133.7412567138672 129.2625274658203 133.5771484375 129.2625274658203 133.5771484375 L 128.5244140625 133.0252227783203 C 128.5244140625 133.0252227783203 127.82808685302734 133.3832244873047 127.7584457397461 133.48765563964844 C 127.68880462646484 133.5920867919922 128.6636962890625 134.80038452148438 128.69155883789062 134.8153076171875 Z" fill="#ccc" stroke="#000" stroke-width="0.08607198939764005" transform="matrix(1 0 0 1 -9.98865e-7 0.0000028082)"/>
  <path d="M 129.35882568359375 133.4287872314453 C 129.35882568359375 133.4287872314453 130.1108856201172 132.72767639160156 130.13876342773438 132.63818359375 C 130.1666259765625 132.54867553710938 130.2083740234375 132.32493591308594 129.99948120117188 132.1608428955078 C 129.7905731201172 131.9967498779297 129.08029174804688 131.66854858398438 129.08029174804688 131.66854858398438 C 129.08029174804688 131.66854858398438 129.2056427001953 132.35476684570312 128.92709350585938 132.63818359375 C 128.6485595703125 132.92161560058594 128.6485595703125 132.9066925048828 128.6485595703125 132.9066925048828 L 129.35885620117188 133.42881774902344 Z" fill="#ccc" stroke="#000" stroke-width="0.08607198939764005" transform="matrix(1 0 0 1 -9.98865e-7 0.0000028082)"/>
  <path transform="matrix(0.979027 -0.203729 0.203729 0.979027 -9.98865e-7 0.0000028082)" d="M 90.80835723876953 158.3444061279297 L 90.61788940429688 158.3470916748047 C 90.5697021484375 158.3477783203125 90.53005981445312 158.38995361328125 90.52938842773438 158.44126892089844 L 90.52668762207031 158.6441192626953 C 90.52601623535156 158.69544982910156 90.56452941894531 158.73651123046875 90.61273193359375 158.73582458496094 L 90.80319213867188 158.73313903808594 C 90.85140228271484 158.73245239257812 90.89100646972656 158.69027709960938 90.89169311523438 158.6389617919922 L 90.89440155029297 158.4361114501953 C 90.89507293701172 158.384765625 90.85655212402344 158.34371948242188 90.80835723876953 158.3444061279297" fill="#ccc"/>
  <path transform="matrix(0.979027 -0.203729 0.203729 0.979027 -9.98865e-7 0.0000028082)" d="M 73.05307006835938 158.10157775878906 L 72.86261749267578 158.10426330566406 C 72.81440734863281 158.10494995117188 72.7748031616211 158.1470947265625 72.77411651611328 158.1984405517578 L 72.77141571044922 158.40127563476562 C 72.770751953125 158.45260620117188 72.80925750732422 158.49368286132812 72.85746002197266 158.4929962158203 L 73.04792022705078 158.49029541015625 C 73.09611511230469 158.4896240234375 73.13574981689453 158.4474639892578 73.13642120361328 158.3961181640625 L 73.13911437988281 158.1932830810547 C 73.13980102539062 158.14195251464844 73.10127258300781 158.10089111328125 73.05307006835938 158.10157775878906" fill="#ccc"/>
  <path transform="matrix(0.979027 -0.203729 0.203729 0.979027 -9.98865e-7 0.0000028082)" d="M 47.051456451416016 156.8331298828125 L 46.860992431640625 156.83583068847656 C 46.81278991699219 156.83651733398438 46.773170471191406 156.87867736816406 46.77248764038086 156.9300079345703 L 46.769798278808594 157.13284301757812 C 46.76911163330078 157.18417358398438 46.80763626098633 157.22523498535156 46.85582733154297 157.2245635986328 L 47.04629898071289 157.2218780517578 C 47.094486236572266 157.22117614746094 47.134117126464844 157.1790008544922 47.13479995727539 157.12767028808594 L 47.137489318847656 156.92483520507812 C 47.13816833496094 156.87350463867188 47.09965515136719 156.8324432373047 47.051456451416016 156.8331298828125" fill="#ccc"/>
  <path transform="matrix(0.979027 -0.203729 0.203729 0.979027 -9.98865e-7 0.0000028082)" d="M 15.300274848937988 155.31752014160156 L 15.109817504882812 155.32020568847656 C 15.061614990234375 155.32089233398438 15.021990776062012 155.36305236816406 15.021310806274414 155.41436767578125 L 15.018617630004883 155.61721801757812 C 15.017939567565918 155.66856384277344 15.056452751159668 155.7096405029297 15.10465145111084 155.70896911621094 L 15.295114517211914 155.7062530517578 C 15.34331226348877 155.70558166503906 15.382941246032715 155.6634063720703 15.383623123168945 155.612060546875 L 15.386313438415527 155.4092254638672 C 15.386994361877441 155.35787963867188 15.348474502563477 155.31683349609375 15.300274848937988 155.31752014160156" fill="#ccc"/>
  <path transform="matrix(0.984232 -0.176881 0.176881 0.984232 90.4317 43.4093)" d="M -61.18599319458008 87.43013763427734 C -61.20238494873047 88.84565734863281 -60.87283706665039 89.9936752319336 -60.449928283691406 89.99430847167969 C -60.02701187133789 89.99494934082031 -59.670894622802734 88.84796142578125 -59.654502868652344 87.43244934082031 C -59.638118743896484 86.01693725585938 -59.967655181884766 84.86890411376953 -60.390567779541016 84.86827087402344 C -60.813480377197266 84.86764526367188 -61.16959762573242 86.01461029052734 -61.18599319458008 87.43013763427734 Z" fill="#333" stroke="#808080" stroke-width="0.13900301957552405"/>
  <path transform="matrix(0.988696 -0.149932 0.149932 0.988696 69.7855 79.8635)" d="M -32.32005310058594 56.157047271728516 C -32.328712463378906 57.03567886352539 -32.154640197753906 57.73750305175781 -31.931245803833008 57.72462844848633 C -31.707853317260742 57.711753845214844 -31.519746780395508 56.98905563354492 -31.51108169555664 56.11042022705078 C -31.502426147460938 55.231788635253906 -31.676490783691406 54.52995681762695 -31.899890899658203 54.54283142089844 C -32.12328338623047 54.55570983886719 -32.31139373779297 55.27840805053711 -32.32005310058594 56.157047271728516 Z" fill="url(#n)" stroke="#808080" stroke-width="0.07973234249582993"/>
  <path d="M 44.25790786743164 138.16375732421875 C 44.25790786743164 138.16375732421875 44.21718978881836 139.78424072265625 44.38006591796875 140.57261657714844 C 44.54293441772461 141.36099243164062 45.0722770690918 142.54344177246094 45.0722770690918 142.54344177246094 L 33.304649353027344 144.95228576660156 L 29.680767059326172 145.6530303955078 C 29.680767059326172 145.6530303955078 29.23285484313965 143.98876953125 29.27358055114746 143.463134765625 C 29.314308166503906 142.93746948242188 29.232860565185547 142.36819458007812 28.41847801208496 142.49960327148438 C 27.604097366333008 142.63101196289062 24.713144302368164 143.1565399169922 24.713144302368164 143.1565399169922 C 24.713144302368164 143.1565399169922 24.50954818725586 142.10545349121094 25.283199310302734 141.66744995117188 C 26.056846618652344 141.22947692871094 30.576669692993164 140.1345672607422 30.576669692993164 140.1345672607422 L 24.59104347229004 132.86441040039062 L 29.02945327758789 132.16366577148438 L 39.69765853881836 138.9959716796875 L 44.258052825927734 138.163818359375 Z" fill="#fff" transform="matrix(1 0 0 1 -9.98865e-7 0.0000028082)"/>
  <path d="M 88.55213928222656 148.295166015625 L 57.28652572631836 173.35848999023438 L 54.99628448486328 173.99842834472656 C 54.99628448486328 173.99842834472656 54.896705627441406 174.7449951171875 54.398841857910156 174.85166931152344 C 53.90098571777344 174.95831298828125 53.40312194824219 174.31837463378906 53.40312194824219 174.31837463378906 L 51.909515380859375 173.99842834472656 L 50.117191314697266 171.8654327392578 L 52.00909423828125 171.54547119140625 L 54.100093841552734 172.39871215820312 L 67.44304656982422 157.46722412109375 L 69.33495330810547 150.108154296875 L 73.01925659179688 148.2950439453125 L 81.38346099853516 146.90855407714844 L 89.6480484008789 146.05532836914062 L 88.552734375 148.2949981689453 Z" fill="#78706e" transform="matrix(1 0 0 1 -9.98865e-7 0.0000028082)"/>
  <path d="M 40.158504486083984 150.64218139648438 L 30.997743606567383 157.6813507080078 L 27.014780044555664 158.4279022216797 L 32.29219436645508 150.42884826660156 L 40.158504486083984 150.64215087890625 Z" fill="#46484b" transform="matrix(1 0 0 1 -9.98865e-7 0.0000028082)"/>
  <g transform="matrix(1 0 0 1 110.558 82.6017)">
   <path d="M -19.580585479736328 70.58660125732422 C -19.580585479736328 70.58660125732422 -18.848814010620117 70.82411193847656 -18.53835105895996 71.46540832519531 C -18.227888107299805 72.10669708251953 -18.072683334350586 74.31560516357422 -18.161375045776367 74.93309783935547 C -18.25007438659668 75.55059814453125 -18.89314842224121 76.0256576538086 -18.89314842224121 76.0256576538086 C -18.89314842224121 76.0256576538086 -19.55838394165039 74.00675201416016 -19.602733612060547 72.62923431396484 C -19.647075653076172 71.251708984375 -19.669261932373047 70.58663177490234 -19.580554962158203 70.58663177490234 Z" fill="#e6e6e6" stroke="#000" transform="matrix(1 0 0 1 -0.0000222846 -0.00000322399)"/>
   <path d="M -28.672290802001953 71.03734588623047 C -28.672290802001953 71.03734588623047 -25.900447845458984 71.369873046875 -24.326038360595703 71.22736358642578 C -22.75162124633789 71.08485412597656 -19.691532135009766 70.41980743408203 -19.691532135009766 70.41980743408203 C -19.691532135009766 70.41980743408203 -19.71371078491211 72.7474594116211 -19.491954803466797 73.81623077392578 C -19.270214080810547 74.88501739501953 -18.84889793395996 76.02513885498047 -18.84889793395996 76.02513885498047 C -18.84889793395996 76.02513885498047 -23.17293930053711 76.76142883300781 -24.725231170654297 76.76142883300781 C -26.277523040771484 76.76142883300781 -26.343975067138672 76.73768615722656 -26.343975067138672 76.73768615722656 L -26.499195098876953 76.16764831542969 C -26.499195098876953 76.16764831542969 -28.361865997314453 76.16764831542969 -28.561466217041016 76.04888916015625 C -28.761058807373047 75.93012237548828 -28.827564239501953 75.57386016845703 -28.827564239501953 75.57386016845703 C -28.827564239501953 75.57386016845703 -30.424182891845703 75.38385009765625 -30.557170867919922 75.2888412475586 C -30.690143585205078 75.19384002685547 -30.84543228149414 74.90882110595703 -30.46847152709961 74.7425537109375 C -30.091503143310547 74.57630157470703 -28.916255950927734 73.76874542236328 -28.916255950927734 73.76874542236328 C -28.916255950927734 73.76874542236328 -30.379817962646484 73.98250579833984 -30.934192657470703 73.98250579833984 C -31.488582611083984 73.98250579833984 -32.2203483581543 73.7449951171875 -32.2203483581543 73.7449951171875 L -29.226787567138672 71.369873046875 L -28.672428131103516 71.03734588623047 Z" fill="url(#f)" stroke="#000" transform="matrix(1 0 0 1 -0.0000222846 -0.00000322399)"/>
   <path d="M -28.770427703857422 71.01507568359375 C -28.770427703857422 71.01507568359375 -25.589244842529297 71.31462860107422 -24.54043960571289 71.2022933959961 C -23.491634368896484 71.08995819091797 -22.723590850830078 70.87648010253906 -22.547779083251953 71.2022933959961 C -21.910953521728516 72.38259887695312 -25.282695770263672 72.33351135253906 -25.868846893310547 72.40049743652344 C -26.408489227294922 72.46220397949219 -26.882640838623047 72.51283264160156 -26.882640838623047 72.8498306274414 C -26.882640838623047 73.18684387207031 -26.952556610107422 73.48638916015625 -27.721622467041016 73.59872436523438 C -28.490680694580078 73.71105194091797 -29.46951675415039 73.86082458496094 -29.993877410888672 73.86082458496094 C -30.518238067626953 73.86082458496094 -31.706844329833984 73.97315216064453 -31.951519012451172 73.86082458496094 C -32.19619369506836 73.74849700927734 -32.196224212646484 73.71105194091797 -32.196224212646484 73.71105194091797 L -28.77029037475586 71.01505279541016 Z" fill="url(#e)" stroke="#4d4d4d" transform="matrix(1 0 0 1 -0.0000222846 -0.00000322399)"/>
   <path d="M -26.953250885009766 72.81269836425781 C -26.953250885009766 72.81269836425781 -26.74258804321289 75.39627838134766 -26.531917572021484 76.107666015625 L -26.32126235961914 76.8190689086914 C -26.32126235961914 76.8190689086914 -21.30044937133789 76.4820785522461 -20.703563690185547 76.33231353759766 C -20.106685638427734 76.18254852294922 -18.91292381286621 76.03277587890625 -18.91292381286621 76.03277587890625 C -18.91292381286621 76.03277587890625 -19.685352325439453 73.14962768554688 -19.755558013916016 72.438232421875 C -19.82577133178711 71.72684478759766 -19.685344696044922 70.45372009277344 -19.685344696044922 70.45372009277344 L -23.30173110961914 71.05280303955078 C -23.30173110961914 71.05280303955078 -22.318622589111328 71.09025573730469 -22.529300689697266 71.46468353271484 C -22.739971160888672 71.839111328125 -26.672290802001953 72.438232421875 -26.672290802001953 72.438232421875 L -26.953182220458984 72.81266021728516 Z" fill="url(#d)" stroke="#666" stroke-width="0.08626135957809775" transform="matrix(1 0 0 1 -0.0000222846 -0.00000322399)"/>
   <path d="M -19.646289825439453 70.41645812988281 C -17.85414695739746 70.34608459472656 -17.74311637878418 76.72266387939453 -18.8772029876709 75.88327026367188 C -19.45224380493164 74.3020248413086 -19.900562286376953 72.78730773925781 -19.646289825439453 70.41645812988281 Z" fill="url(#b)" stroke="#666" transform="matrix(1 0 0 1 -0.0000222846 -0.00000322399)"/>
   <path d="M -18.912771224975586 71.16473388671875 C -18.912771224975586 71.16473388671875 -19.26235580444336 72.88716888427734 -18.912771224975586 74.08538055419922 C -18.56317710876465 75.28358459472656 -18.42335319519043 75.58317565917969 -18.42335319519043 75.58317565917969 C -18.42335319519043 75.58317565917969 -18.8778133392334 74.16029357910156 -18.84285545349121 73.33648681640625 C -18.807905197143555 72.51268005371094 -18.912771224975586 71.2396469116211 -18.912771224975586 71.16473388671875 Z" filter="url(#l)" transform="matrix(1 0 0 1 -0.0000222846 -0.00000322399)"/>
   <path d="M -20.345714569091797 73.71150970458984 C -20.345714569091797 73.71150970458984 -25.239864349365234 74.38550567626953 -25.869182586669922 74.53528594970703 C -26.49850082397461 74.68505859375 -26.32364273071289 75.13438415527344 -25.379764556884766 74.90973663330078 C -24.435894012451172 74.68507385253906 -20.450603485107422 74.19828796386719 -20.34572982788086 74.04851531982422 C -20.240856170654297 73.89873504638672 -20.310771942138672 73.71150970458984 -20.34572982788086 73.71150970458984 Z" fill="#f9f9f9" filter="url(#k)" transform="matrix(1 0 0 1 -0.0000222846 -0.00000322399)"/>
   <path d="M -28.176624298095703 71.4275131225586 C -28.176624298095703 71.4275131225586 -30.239139556884766 73.07503509521484 -30.833446502685547 73.44952392578125 C -31.427745819091797 73.82402038574219 -32.12691879272461 74.0860824584961 -31.567569732666016 73.6741943359375 C -31.008220672607422 73.26231384277344 -28.38637924194336 71.24036407470703 -28.38637924194336 71.24036407470703 L -28.176631927490234 71.4275894165039 Z" fill="#1a1a1a" filter="url(#j)" transform="matrix(1 0 0 1 -0.0000222846 -0.00000322399)"/>
   <path d="M -28.106761932373047 71.68940734863281 C -28.106761932373047 71.68940734863281 -26.28891372680664 71.83917999267578 -25.589740753173828 71.80174255371094 C -24.890567779541016 71.76428985595703 -23.946712493896484 71.72684478759766 -23.806827545166016 71.61451721191406 C -23.666942596435547 71.50218963623047 -23.00278091430664 71.35240936279297 -23.562122344970703 71.65196228027344 C -24.121471405029297 71.9515151977539 -26.114070892333984 72.13874053955078 -26.673450469970703 72.02639770507812 C -27.23281478881836 71.9140625 -28.17667007446289 71.98895263671875 -28.17667007446289 71.98895263671875 L -28.106754302978516 71.68939971923828 Z" fill="#fff" filter="url(#i)" transform="matrix(1 0 0 1 -0.0000222846 -0.00000322399)"/>
   <path d="M -26.428470611572266 76.1451644897461 C -26.428470611572266 76.1451644897461 -28.421131134033203 76.25749206542969 -28.59585952758789 76.0328369140625 C -28.77059555053711 75.80818939208984 -28.980403900146484 74.98436737060547 -28.980403900146484 74.46013641357422 C -28.980403900146484 73.9359130859375 -29.085277557373047 73.8235855102539 -29.085277557373047 73.8235855102539 C -29.085277557373047 73.8235855102539 -28.071475982666016 73.74868774414062 -27.75686264038086 73.59891510009766 C -27.442249298095703 73.44913482666016 -26.847942352294922 73.22447204589844 -26.847942352294922 73.22447204589844 L -26.42844009399414 76.1451187133789 Z" fill="url(#c)" stroke="#4d4d4d" transform="matrix(1 0 0 1 -0.0000222846 -0.00000322399)"/>
   <path transform="matrix(1 0 0 1 2.68366 11.4164)" d="M -29.56631851196289 63.283321380615234 C -29.56631851196289 63.283321380615234 -31.399913787841797 63.31509017944336 -31.20889663696289 63.5057373046875 C -31.017871856689453 63.69639205932617 -30.44491195678711 63.69639205932617 -30.101123809814453 63.56929016113281 C -29.757335662841797 63.44219207763672 -29.528133392333984 63.346858978271484 -29.566341400146484 63.2833137512207 Z" fill="#fff" filter="url(#a)"/>
   <path transform="matrix(1 0 0 1 -0.0000222846 34.0177)" d="M -29.120548248291016 40.786556243896484 C -29.120548248291016 40.786556243896484 -30.798595428466797 40.80699920654297 -30.623783111572266 40.929630279541016 C -30.448963165283203 41.05226135253906 -29.924610137939453 41.05226135253906 -29.609981536865234 40.97050476074219 C -29.295360565185547 40.888755798339844 -29.08560562133789 40.82743835449219 -29.12057113647461 40.786556243896484 Z" fill="#fff" filter="url(#a)"/>
  </g>
  <path transform="matrix(1 0 0 1 110.558 82.6017)" d="M -27.42232894897461 65.23915100097656 C -27.42232894897461 65.23915100097656 -39.58035659790039 68.27765655517578 -40.79624557495117 70.59274291992188 C -42.01212692260742 72.90782928466797 -41.471675872802734 73.48657989501953 -42.01204299926758 75.22291564941406 C -42.55241775512695 76.9592514038086 -51.73829650878906 83.61509704589844 -53.764217376708984 87.23261260986328 C -55.79014205932617 90.85012817382812 -54.574737548828125 92.1521224975586 -51.197547912597656 89.11361694335938 C -47.820369720458984 86.07511901855469 -34.7165641784668 74.35491943359375 -31.745044708251953 71.172119140625 C -28.77352523803711 67.98930358886719 -27.422245025634766 65.67377471923828 -27.422245025634766 65.23968505859375 Z" fill="#494e51" filter="url(#w)" opacity=".88" stroke="#000"/>
  <path transform="matrix(0.999943 0.010665 -0.010665 0.999943 110.9 81.1517)" d="M -22.64734649658203 68.40483093261719 L -51.30924606323242 92.63529205322266 L -53.409523010253906 93.25800323486328 C -53.409523010253906 93.25800323486328 -53.50034713745117 93.97750854492188 -53.956939697265625 94.0816421508789 C -54.41353988647461 94.18577575683594 -54.870643615722656 93.57052612304688 -54.870643615722656 93.57052612304688 L -56.2408561706543 93.26624298095703 L -57.88627243041992 91.21588897705078 L -56.15117645263672 90.90255737304688 L -54.23258972167969 91.71905517578125 L -42.00422668457031 77.29804992675781 L -40.273929595947266 70.20292663574219 L -36.89580535888672 68.44622802734375 L -29.224699020385742 67.0879898071289 L -21.64457893371582 66.24385070800781 L -22.647737503051758 68.40460968017578 Z" fill="none" filter="url(#v)" stroke="#000" stroke-width="0.299662129791745"/>
  <path transform="matrix(1 0 0 1 105.445 87.3735)" d="M -66.96697998046875 64.23672485351562 L -73.78330993652344 69.47444915771484 L -76.74691009521484 70.02996063232422 L -72.82010650634766 64.07805633544922 L -66.96697998046875 64.23677825927734 Z" fill="#808080" filter="url(#u)" opacity=".73"/>
  <path transform="matrix(1 0 0 1 110.558 82.6017)" d="M -71.39049530029297 68.61170196533203 L -79.16893005371094 74.58866882324219 L -82.55086517333984 75.22259521484375 L -78.0698013305664 68.43055725097656 L -71.39049530029297 68.61167907714844 Z" fill="none" filter="url(#t)" stroke="#000" stroke-width="0.1763615093846921"/>
  <path transform="matrix(0.994982 -0.100057 0.100057 0.994982 99.0244 74.9279)" d="M -81.43780517578125 49.39115524291992 L -76.22329711914062 49.354251861572266 L -67.58145141601562 56.74173355102539 L -74.39939880371094 58.31357192993164 L -75.98603820800781 57.30905532836914 L -81.43766021728516 49.39115905761719 Z" fill="#eceae8" filter="url(#s)"/>
  <path transform="matrix(1 0 0 1 110.558 82.6017)" d="M -64.3554916381836 60.326416015625 L -82.46320343017578 63.7991828918457 L -82.83024597167969 62.75080490112305 C -82.83024597167969 62.75080490112305 -65.7013931274414 59.01587677001953 -65.15084075927734 59.212486267089844 C -64.60028076171875 59.409080505371094 -64.29438781738281 60.45745849609375 -64.3555679321289 60.326416015625 Z" fill="url(#m)" filter="url(#r)"/>
  <text transform="matrix(0.991997 -0.126262 0.110266 0.993902 -4.91919e-7 0.00000434374)" x="90.5114540261307" y="150.27040265525565" fill="#fff" font-family="Arial Narrow" font-size="1.6107224820667492" controller-class="Text_box" text-anchor="start" height="1.984375"><tspan x="0" y="1" newline=""><![CDATA[perpic]]></tspan></text>
  <text transform="matrix(0.984673 -0.17441 0.15258 0.988291 -4.91919e-7 0.00000434374)" x="8.382121245147662" y="144.0744177004944" fill="#192851" font-family="Arial Narrow" font-size="3.028795489160299" controller-class="Text_box" text-anchor="start" height="3.328125"><tspan x="0" y="3" newline=""><![CDATA[LGM]]></tspan></text>
 </g><text controller-class="Text_box" transform="matrix(1 0 0 1 24.7738 70.6785)" width="109.04976463317871" height="27.296875" font-family="Alegreya Sans SC" font-size="20" font-style="" text-align="left" text-anchor="start" fill="url(#__1507201556950_1__)" stroke="#000000" stroke-width="1.00" stroke-linecap="butt" stroke-linejoin="miter" opacity="1" style="" font-weight="300" filter="url(#__1507201556950_3__)"><tspan x="0" y="20" newline=""><![CDATA[Coola resor]]></tspan></text></g></g></svg>